<?xml version="1.0" standalone="no"?>
<!DOCTYPE svg PUBLIC "-//W3C//DTD SVG 1.1//EN" "http://www.w3.org/Graphics/SVG/1.1/DTD/svg11.dtd" >
<svg xmlns="http://www.w3.org/2000/svg" xmlns:xlink="http://www.w3.org/1999/xlink" version="1.1">
<metadata>
Created by FontForge 20170910 at Thu Feb  8 18:47:15 2018
 By Jimmy Wärting
Copyright (c) 2018 by Vlad Cristea. All rights reserved.
</metadata>
<defs>
<font id="SmoothStone-Regular" horiz-adv-x="530" >
  <font-face 
    font-family="Smooth Stone"
    font-weight="400"
    font-stretch="normal"
    units-per-em="1000"
    panose-1="0 0 5 0 0 0 0 0 0 0"
    ascent="800"
    descent="-200"
    x-height="326"
    cap-height="751"
    bbox="-262 -711 714 950"
    underline-thickness="50"
    underline-position="-100"
    unicode-range="U+0020-007D"
  />
<missing-glyph horiz-adv-x="825" 
d="M677 -700h-524v1650h524v-1650zM277 839v-54h107v-61h-108v-54h273v54h-108v61h108v54h-272zM276 627v-172h273v56h-108v116h-165zM384 511h-54v60h54v-60zM276 410v-54h108v-61h-108v-54h165v115h108v54h-273zM495 311v-108h-219v-57h273v165h-54zM384 110v-92h57v38h54
v-78h-165v132h-54v-186h273v186h-165zM276 -175v-187h273v187h-273zM495 -307h-165v77h165v-77zM276 -400v-54h115l-115 -78v-54h273v54h-168l116 78h52v54h-273z" />
    <glyph glyph-name="a_a.liga" unicode="aa" horiz-adv-x="536" 
d="M459 -101q-13 0 -23.5 7.5t-16.5 20.5q-11 26 -15 71q-5 47 -11 179q-9 -14 -15 -32t-7 -22q-21 -68 -39 -101q-2 -3 -8.5 -14.5t-14.5 -19.5q-16 -14 -31 -14q-10 0 -19 6t-15 17q-9 13 -12 36q-1 3 -1 10q-10 -16 -30 -44q-2 -2 -9.5 -11.5t-15.5 -15.5q-11 -8 -23 -8
q-18 0 -31 17q-19 25 -19 79q0 24 2 53.5t3 40.5l3 39q-20 -62 -39 -100q-15 -31 -29 -48q-10 -15 -24 -19q-7 -3 -14 -3q-21 0 -30 22q-4 9 -4 23q0 89 50 172q7 11 17 21q18 15 38 12q8 -1 12 4t8 13.5t7 14.5q11 16 17 20q8 6 17 6t16 -6.5t8 -17.5v-6l-1 -16
q-7 -50 -13 -152l-1 -22q-2 -36 -2 -55q0 -32 10 -51q2 2 12 14q36 46 64 105l7 14q4 21 10 39q10 33 22 56q11 22 23 33q20 20 41 20q13 0 25 -6q3 -2 9 -4q5 3 6.5 9t2.5 8q3 6 4.5 12t3.5 11q8 19 24 19q10 0 17 -7t8 -19q5 -37 5 -65v0q0 -139 1 -185q2 -55 13 -103
q2 -10 6 -15t15 -4h2q8 0 13 -5t5 -12q0 -13 -16 -18q-9 -3 -18 -3zM294 43q25 51 47 132q4 15 4 33q0 12 -3 24q0 10 -8 11l-1 1q-4 0 -8 -6q-12 -16 -17 -24q-35 -72 -35 -148v-21q0 -2 0.5 -8.5t7.5 -12.5q6 5 13 19zM26 91q23 44 46 114l1 7v2q0 5 -5 8q-7 2 -11 -3
q-6 -8 -8 -12q-28 -55 -34 -112q0 -1 -1 -6t3 -8q4 1 9 10z" />
    <glyph glyph-name="b_b.liga" unicode="bb" horiz-adv-x="568" 
d="M40 -244q-19 85 -28 201q-1 7 -1 21l-16 -9q-3 -1 -8 -1q-14 0 -20 13q-2 6 -2 8q0 5 3 10t4 6q12 12 27 20q7 5 7 20q0 6 -0.5 16.5t0.5 24.5v4q0 17 -10 24q-14 11 -14 34q0 38 27 72q2 44 10 130q16 161 41 341q2 18 5 25t9.5 11t14.5 4q6 0 9 -1q20 -6 15 -23
q-11 -41 -17 -79t-15 -113l-9 -72q-11 -92 -18 -179q39 28 86 36q6 1 15 1q17 0 30 -6q31 -15 31 -56q0 -17 -6 -37q-11 -39 -43 -83q-46 -62 -106 -108q-1 -1 -11 -7q8 -164 35 -235q1 -3 4 -11t3 -15q0 -10 -7.5 -16.5t-16.5 -6.5q-21 0 -28 36zM299 -171q-6 20 -7 30
q-2 13 -2.5 22.5t-0.5 15.5q-2 30 -4 94q-15 20 -18 21q-25 6 -25 26q0 6 1 9q1 4 3 9t3 7q5 10 9 14t13 4l13 -1q-1 0 -1 12q0 24 1 51t2 41q3 110 16 245q4 37 5 52q12 120 23 184q2 14 5 19q3 7 9 11.5t14 4.5l9 -1q14 -6 15 -14v-3q0 -7 -1 -10q-18 -76 -27 -150
t-19 -194l-3 -31l-6 -95l5 14q14 33 34 60q22 29 46 43q12 8 22 11q11 3 20 3q22 0 36.5 -14.5t14.5 -37.5q0 -20 -9 -43q-50 -121 -149 -194q-17 -14 -17 -32q-2 -22 -4 -31l6 -92q1 -11 5 -33q2 -16 11 -23q8 -6 8 -14q0 -5 -3 -9q-5 -8 -17 -8q-6 0 -9 1q-19 7 -27 26z
M352 89q5 6 7 8q57 58 92 132q12 30 15 46q2 8 2 13q0 7 -4 14h-5q-7 0 -13 -4l-9 -6q-22 -16 -40 -43q-40 -61 -61 -159q0 -1 2 -7q9 0 14 6zM57 58l8 2l9 7l2 2q31 30 54 61q31 41 43 74q7 23 8 36v3q0 8 -4 16q-7 5 -17 5h-1q-7 0 -10 -1q-49 -7 -91 -48q-5 -5 -8 -13
q-2 -40 -2 -61v-30v-45q1 -3 2 -4.5t2 -2.5q2 -1 5 -1z" />
    <glyph glyph-name="e_e.liga" unicode="ee" horiz-adv-x="392" 
d="M19 -57q-18 18 -28 47q-4 11 -9 38.5t-5 65.5q0 96 42 181q17 32 36 50q19 17 41 17q21 0 33.5 -12.5t12.5 -33.5q0 -20 -9 -43q-21 -57 -69 -105q-15 -17 -33 -23q-12 -4 -12 -15q-1 -11 -1 -31q0 -58 20 -101q5 -13 17 -23q8 -6 16 -6q7 0 11 2q13 5 24 13
q25 19 43 41.5t41 56.5q2 3 2 9q0 7 -1 10l-1 2q-5 33 -5 60q0 32 5 54q6 39 23 66q10 17 24 27q13 8 27 8q24 0 36 -20v0q8 -11 8 -31q0 -27 -12 -65q-17 -52 -52 -107q-6 -10 -6 -19q0 -6 3 -12l6 -16q9 -29 20 -47q3 -7 7.5 -10t14.5 -2q1 1 3 1q9 0 14.5 -4t7.5 -10v-2
q0 -5 -4.5 -10.5t-11.5 -8.5q-8 -3 -16 -3q-11 0 -22 6q-9 4 -21 19q-11 16 -24 43q0 2 -1 3q-2 7 -9 11l-8 -9l-18 -21q-25 -28 -45 -42q-17 -12 -29 -16q-16 -6 -32 -6q-31 0 -54 23zM30 170q1 0 2 0.5l1 0.5q5 3 8 8q33 36 51 81q8 19 8 36v2q0 7 -4 8
q-24 -15 -45.5 -59.5t-21.5 -77.5zM249 176.5q11 27.5 15 50.5v5q2 10 2 14q0 7 -3 13q-16 -13 -26.5 -42.5t-10.5 -57.5q0 -9 2 -23q10 13 21 40.5z" />
    <glyph glyph-name="f_f.liga" unicode="ff" horiz-adv-x="600" 
d="M618 140q0 -11 -9 -25q-7 -10 -14 -10q-6 0 -14 8q-11 14 -17 14q-4 0 -17 -5q-39 -15 -100 -52.5t-82 -52.5q0 -12 5 -15q48 -38 74.5 -90t42.5 -122q23 -95 23 -202q0 -27 -6 -54q-1 -9 -7 -23q-12 -22 -35 -22q-13 0 -24 8q-15 10 -27 31q-33 51 -52 130
q-29 115 -34 279q-1 12 -1 36q0 13 -14 18q-19 6 -38 6q-11 0 -16 -1t-14 -1q-7 0 -11 1q-15 6 -15 17q0 12 16 16l17 2q16 1 34 5t25 5q16 4 16 21q0 45 7 108q1 15 5 50l3 21q0 4 1 8.5t1 6.5q-60 -63 -105 -107t-94 -81q-52 -37 -88 -48q74 -48 117 -137q38 -77 59 -201
q13 -80 13 -130q0 -20 -1 -30q-2 -23 -8 -41q-7 -16 -19 -24.5t-27 -8.5q-13 0 -29 8q-18 9 -35 32q-30 39 -54 99q-38 97 -59 238q-11 66 -16 169v19l-7 1q-30 4 -40 23q-2 4 -2 11q0 10 5 17.5t14 7.5q7 0 14.5 -4.5t11.5 -6.5l3 -2q-1 18 -1 37q4 124 23 237.5t59 220.5
q28 78 65 136q28 40 48 57q37 34 80 34q23 0 43.5 -11t34.5 -32q22 -33 25 -79v-28q0 -123 -63 -262q-8 -14 -15 -21q-12 -13 -30 -13q-10 0 -18.5 4.5t-12.5 11.5q-4 5 -4 12q0 6 4.5 11.5t11.5 6.5q13 3 19 10t12 21q52 113 52 221q0 35 -10 65q-4 16 -15 30
q-16 19 -35 19q-15 0 -34 -14q-20 -15 -43 -45q-40 -59 -70 -137q-47 -124 -68 -274q-11 -77 -14 -174v-20q0 -16 1 -23q14 4 28 12q70 37 128 91.5t136 142.5q16 18 21 28q6 11 8.5 24.5t3.5 17.5q20 104 57 177q14 29 33 46q20 16 41 16q18 0 32 -12.5t19 -31.5q2 -4 2 -6
q2 -12 2 -19q0 -15 -5 -35q-21 -90 -115 -177q-26 -24 -36 -38q-8 -11 -11 -30q-15 -96 -18 -194l-1 -10q17 12 73.5 45.5t91.5 46.5q32 12 48 14q4 1 10 1q18 0 26 -14q5 -8 5 -16zM407 376v1l1 1q46 49 70 91q17 30 23 57q4 13 4 28q0 7 -1 11l-1 4l-4 -2q-8 -6 -14 -12
q-17 -17 -32 -47q-22 -43 -45 -126q0 -2 -1 -3v-3zM51 -29q-9 8 -10 7v-31q12 -173 53 -303q25 -78 57 -124q14 -20 23 -28q7 -5 9 -5q6 0 9 9q7 28 6 56q-10 156 -53 276q-29 80 -79 129q-6 6 -15 14zM380.5 -62q-4.5 7 -15.5 11l-1 -15q5 -133 26 -234q17 -84 46 -137
q5 -11 9.5 -18t13.5 -13q7 24 7 47q2 131 -29 241q-17 61 -51 109q-1 2 -5.5 9z" />
    <glyph glyph-name="f_i.liga" unicode="fi" horiz-adv-x="454" 
d="M122 -512q-30 38 -54 99q-39 97 -60 238q-12 84 -15 170q-2 18 -18 23q-8 3 -24 11q-9 5 -9 14q0 14 18 19q5 1 10.5 1.5t10.5 2t7 5.5q3 7 3 15.5v10.5q7 254 81 458q28 78 66 136q22 36 47 58q37 33 80 33q50 0 78 -43q22 -33 25 -79q1 -9 1 -28q0 -120 -64 -261
q-5 -13 -14 -22q-13 -12 -31 -12q-22 0 -31 16q-3 6 -3 11q0 15 16 19q13 3 19 10t12 20q52 119 52 221q0 35 -10 65q-6 18 -16 30q-15 19 -34 19q-17 0 -35 -14q-19 -13 -42 -45q-41 -57 -71 -137q-49 -133 -67 -274q-12 -87 -15 -174v-19l1 -5l23 19q137 109 181 126
q30 12 51 12q50 0 65 -57q6 -27 6 -57q0 -34 -5 -96q0 10 -4 -61v-8q0 -18 7 -27q6 -8 6 -19q0 -12 -5 -23.5t-14 -18.5q-9 -9 -19 -9q-17 0 -22 23q-1 5 -1 15q0 11 6 77q1 15 5.5 59.5t4.5 69.5q0 24 -5 52q-4 19 -12 29.5t-23 10.5q-8 0 -14 -2l-9 -3q-33 -13 -91 -56.5
t-110 -86.5l-18 -14q1 -6 4.5 -8.5t4.5 -3.5q78 -50 121 -140q39 -79 58 -201q14 -74 14 -129q0 -20 -1 -31q-2 -25 -9 -40q-13 -33 -46 -33q-15 0 -28 7q-18 10 -35 32zM342.5 362q-7.5 6 -7.5 14q0 10 9 18t20 8q9 0 16 -6t7 -14q0 -9 -8.5 -17.5t-18.5 -8.5t-17.5 6z
M181 -513q5 0 8 10q8 23 6 55q-8 151 -53 276q-28 78 -78 130q-2 2 -7.5 8t-13.5 8q-1 -2 -2.5 -3t-1.5 -2q0 -4 -0.5 -10.5t0.5 -11.5q12 -173 53 -303q24 -74 56 -124q14 -20 24 -28q5 -5 9 -5z" />
    <glyph glyph-name="f_l.liga" unicode="fl" horiz-adv-x="492" 
d="M121 -512q-30 38 -54 99q-39 97 -60 238q-10 65 -16 170v19h-7q-29 6 -40 24q-2 6 -2 11q0 9 5.5 16.5t14.5 7.5q6 0 14 -4.5t11 -6.5l3 -1q0 10 -0.5 20t0.5 16q7 254 81 458q30 82 66 136q24 38 47 58q37 33 80 33q50 0 78 -43q22 -33 25 -79l1 -27q0 -121 -64 -262
q-4 -11 -15 -22q-12 -12 -30 -12q-22 0 -31 16q-4 8 -4 12q0 13 17 18q13 3 18.5 9.5t11.5 20.5q52 115 52 222q0 35 -10 64q-4 17 -15 30q-15 19 -34 19q-18 0 -35 -13q-23 -17 -42 -46q-41 -57 -71 -137q-47 -124 -68 -273q-11 -95 -14 -175v-19l1 -24q7 2 15.5 6t12.5 6
q69 37 127 91.5t137 142.5q16 18 21 29q6 11 8.5 24.5t3.5 16.5q21 106 57 177q17 32 33 46q19 17 41 17q19 0 32.5 -13t19.5 -31l1 -7q2 -12 2 -18q0 -17 -5 -35q-21 -92 -115 -177q-4 -4 -16 -15.5t-20 -23.5t-10 -27.5t-3 -20.5l-1 -2q-21 -143 -21 -306v-59
q4 -144 15 -231q4 -25 7 -41q2 -13 5 -20.5t12 -12.5q8 -5 8 -15q0 -8 -6 -14.5t-15 -6.5q-21 0 -33 23q-9 23 -12 46q-9 43 -12.5 86.5t-6.5 109.5q-3 51 -3 103q0 56 3 113q1 40 7 120q4 40 7 61l3 29q1 3 1.5 12.5t2.5 11.5q-63 -66 -107 -108.5t-93 -78.5
q-48 -35 -87 -48q74 -49 116 -137q40 -83 59 -201q5 -32 9.5 -66.5t4.5 -63.5l-1 -30q-2 -25 -9 -41q-14 -33 -46 -33q-15 0 -29 7q-17 10 -34 32zM404 378q44 47 70 91q17 29 24 58q3 14 3 27v11q-1 4 -2 4l-3 -1q-8 -5 -15 -13q-15 -17 -32 -47q-14 -27 -24 -56t-21 -70
v-2q-1 -1 -1 -3zM180 -513q5 0 8 10q8 23 6 55q-10 156 -53 276q-28 78 -78 130q-6 6 -14 12t-11 8q-1 -7 -1 -15.5t1 -15.5q10 -166 53 -303q22 -73 56 -124q14 -20 23 -28q7 -5 10 -5z" />
    <glyph glyph-name="i_m.liga" unicode="im" horiz-adv-x="777" 
d="M31.5 387.5q-6.5 6.5 -6.5 16.5t6.5 17.5t15.5 9.5h2q10 0 17 -6q8 -6 8 -15v-2q0 -12 -7 -19q-6 -8 -17 -8h-1q-11 0 -17.5 6.5zM622 -23q-12 14 -16 46q-5 53 -5 95q0 26 1 39q-14 -11 -45 -44q-16 -17 -32 -32.5t-27 -20.5q-12 -6 -24 -6t-22 7q-11 8 -16 26
q-4 12 -4 29l1 25q2 20 1 30l-31 -62q-22 -46 -31 -63q-15 -30 -28 -51.5t-28 -27.5q-6 -3 -13 -3q-9 0 -16 5.5t-11 14.5q-8 15 -6 41v2q0 10 1 14q4 64 12 118q10 78 12 134q0 44 -8 39q-10 -4 -28 -28q-24 -31 -35 -49t-24 -41l-36 -63l-12 -20q-16 -27 -35 -55.5
t-37 -49.5q-15 -16 -27.5 -25.5t-27.5 -9.5q-19 0 -31 19q-16 22 -16 69q0 27 3 48q3 30 13 85q3 12 7 36q4 26 23 26q15 0 26 -18q9 -18 9 -26q0 -12 -13 -22q-7 -4 -10 -8t-4 -10q-10 -53 -10 -96q0 -23 2 -34v-2q0 -8 4 -10q10 -1 21 15q31 38 75 113q13 22 51.5 85.5
t52.5 79.5q19 23 35 32q13 7 30 7q47 0 47 -92q0 -46 -15 -136q0 -5 -4 -26q-1 -7 -4 -34t-1 -52q74 154 112 216q16 26 34 26q10 0 17.5 -8.5t9.5 -18.5q1 -3 1 -9q0 -9 -4 -27q-11 -49 -15 -116v-1q0 -9 5 -10q2 -1 8 3q15 12 30 30t18 22q32 40 50 54q19 15 33 12
q17 -4 23 -22t6 -45v-27q0 -46 3 -93q0 -14 7 -20q2 -2 7.5 -3t8.5 -2h1q7 -3 11.5 -9.5t4.5 -13.5q0 -6 -3 -10q-7 -8 -21 -8q-27 0 -41 17z" />
    <glyph glyph-name="i_n.liga" unicode="in" horiz-adv-x="577" 
d="M5 403q0 11 10.5 18t21.5 4q6 -2 11.5 -9t5.5 -17t-6 -14.5t-15 -4.5q-4 0 -12 2q-16 6 -16 21zM456 -48.5q-11 6.5 -17 17.5q-7 14 -11 36q-7 35 -11 110q0 14 -2 40q0 13 -1 20q-1 -2 -2 -3.5t-1 -3.5l-30 -60l-25 -51q-17 -35 -32 -54t-32 -19q-15 0 -22.5 8.5
t-11.5 22.5q-3 17 -3 35q-1 39 3 113q0 10 2 30v3l1 43q0 22 -2 34q-1 0 -4 -2t-8 -9q-22 -32 -64 -100q-29 -50 -34 -58q-8 -15 -15.5 -27.5t-12.5 -21.5q-21 -33 -38 -56q-15 -17 -25 -24q-17 -11 -31 -11q-13 0 -23.5 8.5t-16.5 23.5q-7 16 -9 46q-1 11 -1 35
q0 54 10 136l1 7q1 23 6 47q2 20 17 23q3 1 8 1q14 0 23 -12q8 -13 8 -19t-5 -13q-7 -7 -9 -14.5t-4 -22.5l-2 -10q-11 -75 -11 -124q0 -25 1 -37v-5q0 -1 1 -10t8 -16q11 6 22 22l3 3q19 25 46 74l1 2l13 22q56 99 87 144q22 31 33 41q17 15 33 15q13 0 21.5 -9.5
t12.5 -26.5q2 -18 2 -25q0 -27 -1 -48t-2 -34l-2 -33q0 -16 -2 -50q-1 -25 2 -53q9 7 15 21q1 1 1 2.5t1 2.5l25 49q5 12 36 73q10 19 23 38q11 17 29 17q15 0 21 -11t7 -33l2 -31l6 -98q3 -37 11 -72q3 -12 6.5 -18t13.5 -7q6 -1 9.5 -5t3.5 -10q0 -8 -6 -15t-16 -9l-7 -1
q-12 0 -23 6.5z" />
    <glyph glyph-name="i_t.liga" unicode="it" horiz-adv-x="373" 
d="M225 -413q-7 24 -7 44q-4 60 -4 134q0 83 4 160t13 219q2 17 4 51l13 179l-15 -39q-10 -32 -16 -48q-12 -36 -34 -92q-39 -100 -90 -174q-25 -38 -54 -38q-19 0 -31.5 14t-15.5 34q-3 26 -3 52q0 28 6 86q2 21 11 79q2 22 15 27q1 1 5 1q11 0 19 -10q6 -10 8 -26l1 -11
q0 -9 -5 -14l-4 -4l-4 -4q-5 -5 -7 -21q-10 -70 -10 -105q0 -23 5 -53q2 -13 9 -13q4 0 8 6q53 68 85.5 144.5t73.5 201.5q23 69 28 83l3 11l1 2q0 3 -5 5t-9 1q-42 0 -63 3q-39 5 -63 20q-20 13 -26 30q-1 3 -1 10q0 16 15 22q8 2 13 2q9 0 16.5 -3.5t11.5 -10.5q1 -1 2 -4
t1 -4q5 -19 9 -23.5t24 -6.5q27 -3 52 -3q20 0 29 1q4 0 7 4t3 6l8 23q14 40 19 70q2 18 11 65q4 18 8 27q6 14 18 14q9 0 15.5 -5t7.5 -15q1 -2 1 -5q0 -6 -2 -16q-6 -38 -24 -94q-4 -13 -6.5 -31t-3.5 -26v-3q0 -7 7 -8q4 0 6 1q56 9 92.5 17t44.5 14q6 6 13 6q4 0 10 -4
q8 -6 8 -16q0 -6 -3 -12q-11 -21 -144 -33q-25 -2 -32.5 -8t-10.5 -23q-19 -209 -28 -362q-2 -22 -2 -33q-11 -165 -11 -270q0 -86 7 -160q1 -12 3 -19t8 -14q6 -8 6 -14t-7 -13q-6 -6 -16 -6q-7 0 -14 4q-14 7 -17 24zM28 382.5q-6 6.5 -7 16.5v2q0 8 5 13.5t14 5.5
t15.5 -6t7.5 -15v-2q0 -10 -5.5 -15.5t-13.5 -5.5q-10 0 -16 6.5z" />
    <glyph glyph-name="k_i.liga" unicode="ki" horiz-adv-x="418" 
d="M50 -372q-16 0 -22 15q-6 13 -9 31q-23 99 -31 225q-3 55 -3 111l1 64q0 19 -15 28t-15 23q0 9 8 22q2 4 4 6q13 9 17 22.5t5 34.5q11 182 37 397q8 64 13 97q2 15 5 21q3 10 11.5 14t17.5 1q15 -4 15 -19q0 -3 -2 -11q-11 -45 -18 -114l-4 -27q-16 -129 -26 -236
l-7 -104l5 -2q4 0 8 6q59 65 104 135q6 9 9 20q6 14 12 19q6 6 16 6q7 0 13 -3q9 -6 9 -17q0 -2 -2 -10q-5 -15 -22 -39q-79 -110 -141 -171q-8 -8 -11.5 -13.5t-3.5 -13.5q0 -11 2.5 -14t11.5 -2q21 3 50 18q30 16 76 52q29 24 82 75q16 16 25 23q11 7 19 7q6 0 13 -4
t9 -11t1 -17q-2 -22 -4 -33q-4 -34 -5 -52q-6 -66 -6 -100l1 -32q1 -12 4 -19t13 -10q12 -4 12 -16q0 -3 -2 -11q-3 -12 -12 -21q-9 -11 -20 -11q-15 0 -23 17q-7 13 -9 36q-4 25 -4 58q0 28 4 84q1 8 2 24t1 29v19l-48 -43q-43 -38 -79 -61q-52 -33 -97 -38
q-11 -2 -14.5 -4t-4.5 -12.5t-1 -28.5q0 -132 11 -221q9 -74 20 -124q1 -4 3.5 -14.5t8.5 -17.5q1 -1 4 -6q2 -8 2 -12q0 -8 -3.5 -14t-9.5 -8q-4 -3 -11 -3zM294 457q-4 5 -4 13t5.5 14t15.5 7q10 0 22 -11t12 -21q0 -9 -6.5 -15t-15.5 -6q-17 0 -29 19z" />
    <glyph glyph-name="l_l.liga" unicode="ll" horiz-adv-x="397" 
d="M253 -427q-9 18 -14 45q-17 76 -24 195q-7 98 -5 201q-4 -8 -4 -10q-6 -16 -22 -55.5t-30 -69.5l-3 -5q-3 -8 -11 -22q-11 -20 -24 -36l-7 -8q-17 -16 -33 -16q-24 0 -44 32q-18 27 -26 61t-13 77t-5 103q0 36 2 80.5t3 61.5v2l11 123q-3 7 -9 10q-11 9 -11 18
q0 12 14 18q8 3 10 8.5t2 15.5q5 77 17 136q13 61 28 98q9 22 19 33q11 13 26 13q26 0 31 -29q2 -5 2 -17q0 -8 -2 -28q-17 -114 -66 -217q0 -2 -2 -4q-9 -12 -13 -24.5t-7 -30.5q-5 -48 -13 -144q-1 -12 -3 -50t-1 -70q4 -178 43 -230q7 -9 14 -3q12 11 22 28l1 3
q16 25 40 81l19 49q11 27 31 83q17 51 18 84l-1 77q0 151 20 285q9 67 27 133q10 33 22 56q10 18 18 24q11 10 26 10q11 0 20.5 -6.5t14.5 -17.5q7 -13 9 -42l1 -31q0 -85 -21 -202q-27 -137 -83 -298q-8 -25 -11 -47q-3 -23 -5 -67v-38q0 -53 3 -108q5 -138 20 -231
q2 -17 8 -41q2 -12 5.5 -20t12.5 -13t9 -15q0 -8 -6 -14.5t-15 -6.5q-24 0 -35 23zM261 273q62 207 65 378v13q0 13 -4 20q-15 -22 -31.5 -90t-27.5 -148.5t-11 -134.5q0 -30 4 -43q3 0 5 5zM89 609q-24 -53 -31 -122q24 53 31 122z" />
    <glyph glyph-name="o_i.liga" unicode="oi" horiz-adv-x="377" 
d="M258.5 400.5q-6.5 4.5 -8.5 11.5q-2 6 -2 8q0 10 15 19q5 3 11 3q10 0 17.5 -6t7.5 -15q0 -10 -8.5 -17.5t-17.5 -7.5q-8 0 -14.5 4.5zM218 -92q-3 7 -3 22q-1 63 9 145l6 41q10 74 11 111v8q0 26 -6 36t-25 12h-14h-14q-23 -2 -44 -6q-23 -5 -55 -6v-6q0 -7 2 -13t3 -8
q23 -71 23 -140q0 -40 -7 -75q-8 -49 -27 -82q-11 -24 -30 -24q-22 0 -35 27q-7 18 -10 40q-7 42 -7 90q0 38 3 74q3 35 11 103q1 13 -2 21.5t-14 13.5q-13 6 -19 20q-3 6 -3 12q0 11 7 17.5t19 6.5q26 0 44 -21q15 -18 42 -18q11 0 31.5 2t29.5 3q53 6 65 5
q35 -4 51.5 -25.5t16.5 -60.5q0 -25 -8 -75q-9 -55 -13.5 -93.5t-4.5 -77.5q0 -25 9 -38q6 -8 6 -17q0 -11 -5 -23q-5 -16 -19 -16q-16 0 -24 15zM67 25q6 34 6 71q0 36 -6 68.5t-17 53.5q-12 -86 -12 -138q0 -57 11 -111q12 22 18 56z" />
    <glyph glyph-name="o_m.liga" unicode="om" horiz-adv-x="674" 
d="M46 -52q-23 0 -38 24q-12 21 -17 52q-5 38 -5 67q0 61 14 125q5 31 22 44q-5 9 -14 14t-11 6l-13 5q-12 7 -12 17q0 16 17 18h5q6 0 9 -1q10 -2 15 -2q12 0 36 10q22 12 51 35q8 6 47 40q29 27 51 43q27 20 51 20q30 0 44 -32q11 -26 11 -65q0 -30 -7 -94.5t-12 -103.5
q-1 -2 -1 -7q0 -7 3 -12l16 34q18 38 30 55q7 11 17 21q12 9 23 9q8 0 16 -6t12 -17q6 -14 8 -44l4 -135l2 -25q10 6 12.5 14t3.5 10l39 107q11 28 22 42q12 16 28 16q11 0 20 -8t13 -23q7 -24 10.5 -54.5t4.5 -41.5q3 -27 5.5 -41t12.5 -24q5 -5 5 -10q0 -7 -5.5 -12.5
t-14.5 -5.5q-21 0 -28.5 21t-9 40t-2.5 24l-6 46q-2 25 -6 35q-5 -5 -8 -12.5t-4 -9.5q-6 -15 -16 -45q-5 -13 -14 -37t-16 -41q-10 -25 -20.5 -40t-27.5 -15q-21 0 -28 20.5t-8 49.5l-2 30q-4 62 -4 93q0 7 -1.5 23t-3.5 15q-8 -4 -11.5 -11.5t-4.5 -10.5q-23 -48 -48 -120
q-7 -22 -23 -66q-7 -18 -15 -26q-7 -7 -17 -7q-21 0 -23 22v6q0 11 1 17q1 13 13 104q13 89 19.5 149t6.5 110q0 26 -8 43q-5 15 -17 7q-21 -12 -27 -17t-59 -52.5t-97 -68.5v-1q0 -3 5 -11q27 -28 43 -74t16 -96q0 -57 -20 -103q-11 -26 -28 -41q-16 -14 -31 -14zM49 -4
q6 0 9 5t5 10.5t3 8.5q17 41 17 87q0 53 -25 109l-6 8q-5 -7 -6 -9q-4 -9 -5 -16q-13 -66 -12 -131q2 -24 6 -46q1 -3 2 -10t3.5 -11.5t7.5 -4.5h1z" />
    <glyph glyph-name="o_n.liga" unicode="on" horiz-adv-x="502" 
d="M10 -59q-7 20 -9 51q-2 18 -2 54q0 34 4 100q3 30 6 55t4 33q1 4 1 9q0 6 -3 7.5t-14 1.5q-23 0 -37 6q-22 10 -22 29q0 14 14 27q18 15 41 15q13 0 24 -4q2 0 7 -1.5t9 -1.5q2 0 10 2q2 2 8 2q9 0 16 -7q3 -3 5 -3t6 2.5t7 3.5l64 27q42 18 63 25q12 3 24 3q41 0 51 -39
q4 -19 2 -43l-9 -119q-4 -38 -10 -114q0 -5 3 -7q5 3 6.5 10.5t2.5 9.5q24 78 41 115l19 35q4 7 12 15t21 8q9 0 17.5 -7t12.5 -19q5 -16 7 -38l7 -126q2 -20 8 -29q4 -4 4 -10q0 -5 -5 -10t-12 -5t-12 4q-18 11 -20 33q-4 30 -4 45l-2 74q0 3 -0.5 11.5t-5.5 15.5
q-6 -4 -8.5 -11t-3.5 -9q-15 -33 -37 -103q-15 -51 -27 -79q-6 -14 -16 -24q-8 -8 -17 -8q-23 0 -29 26q-2 10 -2 30q0 51 7 123l3 33q6 56 11 128l1 18q0 6 -2 20q-3 12 -11 12q-6 0 -14 -3t-10 -4q-67 -29 -83 -35q-10 -4 -24 -11.5t-22 -11.5q-9 -5 -5 -14
q33 -77 33 -147q0 -50 -16 -119q-4 -15 -14 -43q-6 -14 -12 -21q-11 -18 -30 -18q-23 0 -32 25zM-5 293q-4 0 -11 -4q6 -3 12 -3q4 0 8 3q-8 4 -9 4zM65.5 32.5q7.5 37.5 7.5 77.5q0 73 -19 102q-5 -15 -10 -88t-4 -115q0 -22 6 -33q12 19 19.5 56.5z" />
    <glyph glyph-name="o_o.liga" unicode="oo" horiz-adv-x="350" 
d="M256 59q-9 -25 -21 -38q-13 -13 -25 -13q-18 0 -29 22q-9 20 -13 55q-6 51 -6 102q0 20 2 58l1 23q0 9 -1 12h-25.5t-43.5 -1.5t-38 -6.5q-7 -2 -8 -7q0 -16 6 -25q26 -37 39 -85q16 -51 16 -105q0 -45 -12 -92q-6 -22 -15 -33q-11 -15 -29 -15q-17 0 -29 16
q-8 11 -12 31q-9 35 -12 72t-3 88q0 21 2 67l1 36l1 23q0 11 -11 11q-6 0 -15 -4t-12 -4q-10 0 -17 5t-9 13l-1 3q0 12 19 21q4 1 18.5 2t23.5 5.5t10 16.5q6 36 6 38q1 8 7 20q8 12 23 12q4 0 12 -2q14 -6 14 -17q0 -5 -3 -10q-7 -16 -8 -20l-4 -17q0 -8 5 -7q27 5 56 6.5
t37 2.5q11 0 33 2v0h3q8 0 15 -8q3 -4 8 -3t6 1q21 2 33 -5.5t20 -28.5q12 -29 12 -73q0 -79 -27 -144zM244 202q0 11 -2 35q-2 19 -6 29q-5 9 -11 2q-13 -13 -10 -28l1 -9q0 -7 -5 -11q-13 -7 -13 -25v-16q0 -13 1 -20l2 -23q2 -47 9 -71l6 4q5 9 5 11q23 61 23 122zM67 44
q0 36 -6 70t-16 51q-5 -23 -5 -70q0 -70 7 -109q0 -1 1 -6t7 -8q12 19 12 72z" />
    <glyph glyph-name="o_r.liga" unicode="or" horiz-adv-x="469" 
d="M54 -109q-17 0 -29 17q-8 12 -12 34q-9 38 -12 78.5t-3 95.5q0 25 2 73l1 40l1 18q0 13 -14 13q-6 0 -14 -2t-10 -2q-10 0 -17.5 5.5t-8.5 13.5l-1 3q0 14 19 23q3 1 18 3t24 7.5t10 18.5q1 7 2.5 19t3.5 21q1 11 7 22q7 13 23 13q8 0 12 -2q14 -6 14 -18q0 -5 -3 -11
q-7 -19 -8 -22q0 -1 -1.5 -7.5t-3.5 -20.5q60 21 101 31q26 8 50 8q28 0 45 -16t20 -43q1 -5 1 -15t-2 -30q-3 -23 -7 -64l-1 -11q0 -7 2 -11q6 5 8 12t2 9q25 77 62 141q16 29 32 46q9 11 16.5 16.5t17.5 5.5q5 0 11 -3q17 -6 20.5 -19.5t3.5 -38.5v-30q0 -10 -3 -15
t-11 -7h-4q-8 0 -14 3.5t-8 10.5q-2 6 -3 15.5t-2 15.5q-7 -3 -10.5 -7t-6.5 -12q-77 -132 -93 -297l-1 -18q0 -19 6 -31q1 -3 1 -9q0 -7 -5.5 -11.5t-13.5 -4.5q-16 0 -25 13q-15 22 -19 43q-5 42 -5 75t3 66q2 29 8 97l3 33v14q0 13 -1 20q-2 9 -7 15t-12 6q-14 0 -27 -3
q-42 -8 -137 -41q0 -21 6 -32q25 -39 39 -93q16 -57 16 -115q0 -50 -12 -99q-7 -24 -15 -36q-11 -17 -29 -17zM67 37q0 39 -6 76.5t-16 54.5q-5 -23 -5 -76q0 -76 7 -118q0 -1 1 -6.5t7 -8.5q12 20 12 78z" />
    <glyph glyph-name="p_p.liga" unicode="pp" horiz-adv-x="620" 
d="M348 -526q-9 24 -10 44l-6 52q-7 80 -7 209v98q1 36 1 109v2v3q0 5 -3 10h-3q-6 0 -11 -3l-5 -1q-6 -3 -12 -3q-19 0 -22 16l-1 3q0 7 10 14q12 6 26 14q4 1 10 5q11 6 11 18q0 43 1 64v92q0 6 -2 8h-1q-5 0 -16 -6q0 -4 3 -7l2 -4q2 -6 2 -9q0 -6 -4 -10q-4 -6 -15 -6
q-24 0 -39 7q-15 6 -18 18v3q0 11 11 20q26 23 53 30q19 5 22.5 17t2.5 33v5q0 13 4 24q4 13 14 18q6 2 9 2t9 -2q12 -5 15 -15q2 -4 2 -7q0 -5 -4 -13l-2 -2q-4 -8 -4 -20q0 -6 2 -10q3 -3 7 -3q3 0 9 2l5 2q48 11 85 8q21 -2 30 -5q21 -7 32 -21.5t11 -33.5q0 -12 -2 -18
q-6 -24 -26 -53q-36 -48 -87 -88q-38 -29 -53 -38q-21 -11 -21 -35v-50v-26v-70q0 -29 0.5 -73t2.5 -102q1 -60 9 -127l7 -49q2 -12 4.5 -19t8.5 -13q7 -7 7 -15q0 -5 -5 -12q-8 -8 -17 -8q-7 0 -14 4q-13 5 -18 23zM48 -622q-8 0 -14 4.5t-9 11.5q-6 20 -7 31q-8 50 -11 90
v0v2q-4 58 -4 87q-5 102 -5 248q0 74 1 111v6v8q0 8 -2 12q-4 2 -13 0q-4 -2 -8 -2q-16 0 -22 13q-2 3 -2 8q0 8 8 16q6 8 16.5 14t12.5 7q13 7 12 21v7l1 32q0 11 -3.5 17.5t-12.5 11.5q-16 10 -16 33q0 40 33 76q59 65 143 77l17 1q19 0 33 -7q34 -15 34 -56q0 -17 -6 -37
q-16 -43 -49 -83q-47 -59 -117 -107q-11 -8 -15.5 -16t-4.5 -21q-2 -110 -2 -168q0 -136 7 -258q2 -34 7.5 -70.5t6.5 -44.5q0 -2 2 -13t8 -20q3 -3 3 -7q2 -6 2 -10q0 -19 -15 -23q-6 -2 -9 -2zM53 77q4 0 9 3q4 1 10 7l2 1q30 25 61 61q34 42 47 74q9 25 9 37v2
q0 12 -5 16q-4 6 -18 6h-1l-11 -1q-53 -7 -101 -48q-7 -6 -9 -13.5t-2 -21.5q0 -30 -1 -44v-13q0 -22 -1 -33v-2v-7q0 -18 6 -22zM407 104q18 15 21 17l2 2q43 37 68 77q14 21 16 41v4q0 17 -18 21q-7 2 -20 2h-2q-44 0 -90 -14q-9 -3 -12.5 -7.5t-3.5 -12.5l-1 -53
q-1 -13 -1 -39v-44v-22q23 13 41 28z" />
    <glyph glyph-name="s_s.liga" unicode="ss" horiz-adv-x="487" 
d="M39 -58h-3q-2 0 -2 1q-17 1 -27 18q-6 10 -6 25q0 10 3 19q4 15 15 30q14 19 38 42l10 8l1 1q4 4 7 5l4 5q-1 0 -2 1.5t-3 2.5q-10 12 -22 20q-20 14 -30 20h-1l-9 6l-29 21q-12 9 -19 22t-7 26q0 14 10 29q9 10 22 19q51 30 104 36h10q11 0 21 -3q17 -4 24 -23
q2 -5 2 -14q0 -13 -5 -23q-3 -6 -13 -18q-6 -6 -14 -6v0q-8 0 -16 8q-7 7 -7 18q0 7 5 17l2 3h-3h-2q-51 -5 -92 -31q-5 -3 -13 -11q-3 -3 -3 -5t3 -7q4 -7 15 -13l22 -14h1l19 -13q9 -6 29 -21.5t26 -24.5q1 -2 2.5 -2t3.5 2q9 7 51 26l42 20q1 13 12.5 32t34 36.5
t55.5 25.5v0q12 3 13 3q17 3 28.5 -6.5t11.5 -25.5q0 -11 -7.5 -19t-17.5 -8l-8 2l-10 1q-17 0 -33.5 -10.5t-21.5 -19.5l-2 -5q0 -4 3.5 -7t4.5 -4q7 -5 8 -5q7 -5 23 -16.5t30 -15.5h1v0h4q5 0 12 5q41 33 69 51q26 17 51 22q8 2 14 2q5 0 11 -2q7 -2 11.5 -7.5t4.5 -12.5
q0 -16 -19 -18q-16 -1 -30 -8t-34 -20q-38 -28 -56 -44l8 -16q9 -19 9 -37q0 -31 -28 -58q-35 -32 -76 -32q-23 0 -36.5 12t-13.5 32q0 12 6 27q9 21 35 49q4 4 11.5 10.5t10.5 13.5q-2 7 -9.5 11t-9.5 5q-31 21 -37 27q-29 -13 -62.5 -30t-47.5 -24q0 -1 0.5 -3t0.5 -6
q3 -13 3 -26q0 -38 -24 -67q-28 -36 -65 -36h-2zM316 3.5q20 16.5 25 35.5v4q0 6 -3 12q-5 11 -13 5q-40 -28 -54 -61q-1 -2 -1 -5q0 -7 8 -7q18 0 38 16.5zM78 4.5q17 19.5 19 41.5v3v7v3l-2 -2q-27 -21 -43 -43q-9 -11 -12 -22q-1 -6 0 -6l1 -0.5t3 -0.5v0q17 0 34 19.5z
" />
    <glyph glyph-name="t_h.liga" unicode="th" horiz-adv-x="483" 
d="M50 -367q-13 6 -18 20q-3 9 -10 37q-13 64 -22 186q-7 100 -7 180q0 85 6 190q1 41 5 91l4 56v2l3 29l-25 -2q-31 0 -50 6t-29 13q-15 12 -15 24q0 9 6.5 16t16.5 8q3 1 10 1q17 0 21 -12q4 -11 11.5 -14.5t18.5 -3.5t38 5l2 28l9 117q3 47 9 71q1 2 2.5 7.5t4.5 9.5
q6 12 20 12q6 0 13 -3q10 -4 13 -12q1 -2 1 -6t-3 -9q-7 -13 -10 -26.5t-5 -33.5l-1 -11l-14 -135l22 6q57 23 124 71q11 9 16 24q14 37 33 68q16 27 33 40q17 17 39 17q15 0 24 -9t9 -24q0 -21 -21 -48q-28 -37 -65 -66q-19 -14 -27 -40q-30 -103 -43 -233
q-11 -93 -11 -178q0 -76 10 -145q0 -2 2 -13.5t9 -20.5q8 7 10 16.5t3 13.5q20 98 28 133q9 42 24 80q12 26 17 34q19 27 45 22v0h2q0 -1 0.5 -1h0.5v0q22 -6 31 -30q5 -13 7.5 -29t3.5 -21q0 -6 2 -24q2 -12 5.5 -39.5t7.5 -44.5q8 -41 23 -60l2 -1l8 2q6 3 11 3
q14 0 22 -13l2 -8q0 -6 -5 -11q-8 -11 -27 -11q-32 0 -53 41q-12 24 -18 50q-6 23 -10.5 56t-6.5 43q-5 41 -9 54q-4 -2 -9 -7v-1h-1q-2 -4 -3.5 -8.5t-3.5 -8.5q-11 -30 -20.5 -67.5t-16.5 -72.5q-2 -11 -8.5 -41t-13.5 -54q-7 -25 -17 -40q-14 -20 -32 -20t-32 21
q-9 16 -13.5 33.5t-8.5 44.5q-10 70 -10 147q0 39 1 58q8 169 40 310q0 2 1.5 7t-1.5 9l-4 1q-4 0 -8 -3t-5 -4q-63 -36 -111 -48l-8 -2q-2 -32 -4 -48v-7q0 -3 -1 -5l-4 -54v-4q-8 -138 -8 -228q0 -67 5 -144q9 -147 25 -233l2 -9q3 -26 15 -40q5 -5 5 -10q0 -9 -8 -15
q-7 -5 -15 -5q-5 0 -13 3z" />
    <glyph glyph-name="t_t.liga" unicode="tt" horiz-adv-x="303" 
d="M52 -481q-14 6 -18 22q-8 26 -10 40q-15 76 -24 203q-8 114 -8 226q0 81 3 178l5 100l4 61v3q4 73 7 106l3 55q-67 0 -121 11q-47 10 -76 30q-23 17 -23 36q0 11 7 18t20 8q3 1 9 1q17 0 21 -13q2 -4 3 -10t1 -8q3 -14 14 -19.5t35 -11.5q50 -9 112 -11l3 43q4 58 8 77
q2 11 6 19q8 13 21 13q6 0 12 -3q11 -5 13 -14q1 -1 1 -5q0 -7 -2 -10q-7 -14 -10 -29t-5 -38q0 -7 -1 -11q-2 -28 -4 -42h5q15 0 43 2l16 1q13 0 64 7l6 119q3 51 9 75q2 14 10 25q9 11 20 11q8 0 17 -6q8 -6 10 -14v-3q0 -8 -7 -15q-7 -9 -11 -29l-1 -5q-6 -38 -12 -120
l-1 -15q0 -12 -1 -19l3 1h3q109 14 185.5 33.5t91.5 30.5q10 7 20 7t16.5 -5.5t6.5 -13.5q0 -3 -2 -9q-6 -12 -32 -20t-95 -22q-110 -19 -188 -30q-1 0 -11 -2l-11 -197l-1 -16l-1 -67q-3 -45 -3 -77q-2 -76 -2 -115q-2 -114 -4 -173l-4 -114l-1 -24q-2 -16 -4 -24v-3
q-3 -19 -21 -21q-1 -1 -4 -1q-13 0 -23 13q-9 10 -9 29q0 18 8 26q10 10 10 28l3 58l7 146q4 113 5 172l3 77l2 57l3 48l1 29l8 144q-56 -7 -69 -7l-38 -2h-9q-9 0 -13 -1l-9 -107q-1 -22 -5 -66v-8v-6l-4 -58v-5q-6 -124 -6 -222t6 -185q6 -85 11.5 -141.5t16.5 -112.5
l1 -10q3 -17 6 -26t10 -17q5 -7 5 -12q0 -8 -8 -16q-7 -6 -15 -6q-6 0 -13 4z" />
    <glyph glyph-name="u_u.liga" unicode="uu" horiz-adv-x="505" 
d="M160 -107q-9 0 -16 5q-8 7 -12 23t-4 49q0 63 7 154l3 35h-5l-15 -49q-20 -61 -40 -97q-2 -3 -8.5 -14t-14.5 -17q-12 -12 -26 -12q-20 0 -31 22q-10 20 -14 57q-1 13 -1 38q0 78 29 165q4 12 9 18q8 11 19 11q10 0 16.5 -5.5t8.5 -13.5q3 -16 3 -31q0 -20 -4 -36
q-3 -14 -21 -16q-11 0 -13 -12q-9 -40 -9 -81q0 -35 5 -59q1 -3 2 -5l2 -4q8 1 11.5 7.5t4.5 8.5q26 50 41 105q10 36 29 108t34 125q3 16 13 39q4 11 16 11q19 0 21 -18v-3q0 -8 -1 -12l-9 -82q-1 -14 -5 -42q-14 -131 -18 -194q-2 -46 -2 -70q0 -17 2 -51q0 -2 1 -10.5
t7 -15.5q6 -9 6 -15t-6 -12q-5 -4 -15 -4zM399 -106q-19 3 -24 27q-5 28 -5 49q0 31 6 91l2 25l2 27q1 6 0 13l-12 -30q-14 -34 -23 -51q-12 -24 -22 -35q-15 -13 -28 -13q-18 0 -30 23q-5 8 -9 28q-5 35 -5 68q0 19 5 99l2 29q0 6 2 12q3 12 11 19q6 3 12 3q9 0 16 -5
t7 -17q0 -7 -1 -10q-12 -58 -12 -119q0 -32 3 -65v-2q2 -8 4 -10q7 5 10 15q2 4 2 5q23 46 40 108q14 53 23 91l12 47l1 2q1 10 6 19q4 12 17 12q20 0 20 -19l-1 -16l-1 -9l-4 -67l-14 -205l-1 -38l1 -34q1 -7 3.5 -11t9.5 -6q14 -3 17 -13q1 -2 1 -5q0 -10 -7 -18
q-12 -15 -28 -15q-5 0 -8 1z" />
    <glyph glyph-name=".notdef" horiz-adv-x="825" 
d="M677 -700h-524v1650h524v-1650zM277 839v-54h107v-61h-108v-54h273v54h-108v61h108v54h-272zM276 627v-172h273v56h-108v116h-165zM384 511h-54v60h54v-60zM276 410v-54h108v-61h-108v-54h165v115h108v54h-273zM495 311v-108h-219v-57h273v165h-54zM384 110v-92h57v38h54
v-78h-165v132h-54v-186h273v186h-165zM276 -175v-187h273v187h-273zM495 -307h-165v77h165v-77zM276 -400v-54h115l-115 -78v-54h273v54h-168l116 78h52v54h-273z" />
    <glyph glyph-name="space" unicode=" " horiz-adv-x="300" 
 />
    <glyph glyph-name="A" unicode="A" horiz-adv-x="510" 
d="M62 -466q-15 19 -27 48q-20 49 -37 134q-26 128 -26 253q0 38 1 58q3 57 11 125h-1q-7 0 -32.5 0.5t-46.5 7.5q-25 7 -39 21q-16 16 -16 34q0 12 7 21.5t16 9.5q8 0 15 -6t7 -15q0 -15 6 -20t19 -8q33 -9 70 -7q31 210 115 392q39 86 86 140q24 29 52 47q29 18 57 18
q22 0 41.5 -12t34.5 -34q17 -25 26.5 -54t16.5 -68q11 -66 11 -165q0 -53 -1 -79q-2 -60 -4 -92q28 8 44.5 13.5t21.5 7.5q2 1 10 3.5t14 8.5q8 5 14 5q9 0 16 -6q8 -7 8 -18q0 -13 -11 -19q-3 -3 -13 -5l-106 -31q-6 -100 -15 -197q-18 -220 -49 -362q-10 -40 -18 -60
q-5 -14 -13 -25q-12 -12 -28 -12q-21 0 -32 18q-6 10 -6 18q0 5 3 11q7 11 18 11q6 0 10 -1q4 -2 6 -2q7 0 10 12q15 48 28 129q24 146 41 377q4 48 5 72q-103 -28 -150 -39q-115 -29 -203 -37q-13 -88 -13 -183q0 -47 3 -93q12 -148 47 -254q9 -27 17 -44.5t23 -30.5
q7 -6 7 -13q0 -5 -3 -9q-6 -11 -20 -11q-15 0 -28 17zM218 226q86 21 166 45q5 90 5 163q0 23 -1 34q0 120 -23 197q-12 37 -27 59q-19 25 -39 25q-15 0 -33 -12q-24 -16 -52 -53q-41 -52 -78 -137q-70 -158 -102 -354q82 8 184 33z" />
    <glyph glyph-name="B" unicode="B" horiz-adv-x="560" 
d="M48 -475q-23 7 -29 38q-7 39 -11 95l-2 39q-1 7 -3.5 10t-9.5 4t-19 7q-13 6 -15 18v4q0 11 7 19q10 10 27 22q11 10 10 22q-1 21 -1 63q0 32 2 94v34v2q0 8 -2 10q-1 1 -5 1q-5 0 -9 -1q-4 0 -12 -2h-1l-12 -2l-9 -1q-7 0 -14 3q-12 5 -14 16v3q0 10 11 15q1 1 7 4
q28 15 38 19q14 5 20.5 14.5t6.5 25.5q2 123 10 230q10 146 25 289q4 42 5 62q1 10 -1 12h-3l-10 -2q-1 0 -13 -5l-4 -2l-1 -1q-1 -5 4 -8q5 -4 5 -6q3 -6 3 -13q0 -5 -3 -11q-6 -10 -24 -10q-33 0 -63 19q-14 9 -14 22v1q0 14 14 26q12 9 38 19q90 36 203 51q63 9 130 9
q37 0 75 -3q78 -6 134 -26q36 -14 53 -26q30 -21 46 -50.5t16 -64.5q0 -19 -4 -35q-8 -40 -41 -93q-36 -56 -98 -118q-156 -157 -397 -289l-10 -5q-16 -8 -23 -15q4 -2 11 0l4 1q45 3 84 3q88 0 160 -18q47 -12 75 -30q44 -29 44 -71q0 -28 -19 -56q-20 -30 -58 -59
q-92 -67 -229 -102l-46 -9h-1q-4 0 -14 -2v0q-11 -2 -13.5 -4t-2.5 -9q0 -43 9 -113q3 -16 11 -23q10 -7 10 -18q0 -5 -4 -13q-8 -11 -24 -11q-7 0 -10 1zM56 101q4 0 18 8q10 5 19.5 10.5t17.5 9.5q212 124 352 267q64 65 97 123q24 43 29 73q2 14 2 22q0 27 -13.5 49.5
t-38.5 37.5q-33 18 -72 25q-65 13 -140 13q-93 0 -199 -21q-12 -2 -17.5 -8.5t-7.5 -18.5l-8 -59l-2 -14q-28 -194 -37 -374l-1 -8v-17q0 -19 -1 -29v-4l-1 -66v-5q0 -12 2 -14h1zM66 -250q38 1 79 12q111 30 192 91q41 30 56 61q8 16 8 28q0 24 -26 41q-21 14 -58 23
q-78 19 -158 18h-12q-31 0 -79 -6q-13 -1 -15 -3.5t-3 -14.5v-142l-1 -35q0 -11 8 -21q10 -13 10 -18q0 -4 -4 -10.5t-6 -9.5v0v0q-4 -6 -4 -8q0 -4 3.5 -5t7.5 -1h2z" />
    <glyph glyph-name="C" unicode="C" horiz-adv-x="440" 
d="M38 -389q-23 25 -39 72q-27 72 -31 160q-2 52 -2 79q0 334 138 670q19 50 49 94q19 29 36 43q24 19 47 19q33 0 57 -33q23 -31 35 -87q8 -37 8 -88q0 -43 -5 -77q-3 -26 -9 -63q-3 -15 -4 -18q-6 -16 -22 -16q-6 0 -9 1q-12 3 -19 13q-4 7 -1 18q11 33 16 66t6 39
q3 29 3 56q0 57 -18 110q-7 22 -19 37q-6 6 -14 6q-5 0 -11 -3q-14 -8 -32 -30q-26 -36 -48 -86q-60 -131 -99 -306q-44 -195 -43 -375q0 -109 22 -191q8 -33 21 -61q3 -6 13 -21q18 -27 38 -27q11 0 33 10q15 8 39 25q90 72 152 208q30 65 32 134q0 14 5 20t16 6h1
q12 0 19 -6q8 -8 8 -21q-2 -57 -19 -103q-30 -77 -67 -137.5t-103 -118.5v0q-35 -29 -65 -41q-22 -11 -46 -11q-39 0 -69 34z" />
    <glyph glyph-name="D" unicode="D" horiz-adv-x="470" 
d="M6 -454q-22 9 -24 40q-5 34 -3 84q-22 -15 -57 -38q-23 -14 -43 -14q-29 0 -40 24q-4 8 -4 19q0 20 12 32q7 7 18 7q10 0 21 -8q3 -3 6 -9t9 -9q29 17 70 56q6 5 6.5 13t0.5 10l6 212q1 52 5 161l4 132l2 64q3 146 9 290q2 42 2 61q1 4 1 18q-18 -2 -38 -7.5t-31 -13.5
q-14 -10 -34 -10q-7 0 -21 2q-9 1 -15 6.5t-8 14.5v2q0 14 20 20q20 4 40 12q59 17 83 22q7 2 9.5 5t4.5 8t3 9q4 9 12 14t17 5q11 0 18.5 -8t8.5 -23q16 2 28 2q342 0 342 -235q0 -63 -25 -147v0q-10 -43 -29 -93q-52 -131 -161 -300q-88 -137 -190 -243q-8 -8 -13 -18
q-1 -17 -1 -56q0 -37 1 -53q1 -7 2.5 -13t6.5 -11q7 -7 7 -16q0 -8 -5 -14q-8 -10 -24 -8q-3 0 -9 2zM45.5 -208q6.5 8 8.5 10q133 154 241 360q54 103 84 216q20 71 20 129q0 75 -28 115t-61 53q-79 33 -171 33q-36 0 -67 -4q-3 -3 -6 -19q-7 -54 -15 -162
q-11 -152 -16 -309t-9 -365l-1 -29l1 -43q13 7 19.5 15z" />
    <glyph glyph-name="E" unicode="E" horiz-adv-x="310" 
d="M192 -464q-114 0 -162 108q-30 68 -36 245q-2 24 -2 74q0 103 15 272v5q-8 4 -15 16q-4 7 -4 18q0 16 9 23q7 5 16 2q23 186 63 342l-28 3q-46 6 -77 25q-24 17 -24 35q0 10 7 17.5t19 9.5q3 1 11 1q15 0 19 -11q2 -4 3 -9t2 -9q3 -15 16 -20t34 -7q12 -3 26 -3l2 9
l11 38v0q7 26 16 44q9 14 24 14q13 0 21 -7t8 -17q0 -8 -7 -15q-8 -9 -14.5 -25t-13.5 -38l-2 -6q34 0 50 1q57 4 102 11q51 9 82 16q36 8 54 14q3 1 12 3.5t14 6.5q11 8 20 8q11 0 17 -5.5t6 -13.5q0 -5 -3 -11q-7 -12 -34.5 -19.5t-95.5 -18.5l-41 -6q-14 -2 -40.5 -6
t-47.5 -6v0h-5l-3 -1v0q-41 -4 -96 -4q-42 -149 -66 -328l-2 -15l-3 -30h1q36 0 78 15q9 4 24 11t20 11q6 6 14 6t14 -5q9 -7 9 -18q0 -12 -10 -19q-9 -6 -36.5 -15.5t-31.5 -11.5q-45 -13 -76 -13h-10l-1 -9q-10 -112 -10 -240q0 -185 25 -281q12 -49 32.5 -83.5
t55.5 -42.5q22 -4 35 -4q18 0 41 5q25 5 57 17q32 10 60 27q27 17 53 40q24 21 44 51q6 7 11 11t12 4q16 0 24 -15q2 -6 2 -10q0 -7 -5 -14l-1 -2l-6 -7q-4 -4 -5 -6q-42 -48 -104 -82q-61 -34 -127 -46q-21 -4 -46 -4z" />
    <glyph glyph-name="F" unicode="F" horiz-adv-x="250" 
d="M48 -426q-11 14 -18 36q-1 3 -6.5 24.5t-11.5 78.5v3l-2 20v1q-1 3 -1 10l-3 28v0q-8 103 -9 179v43q0 83 5 206q-8 -2 -23 -2q-19 0 -33 5q-22 7 -32 22q-6 8 -6 17t6 15q7 7 19 7t19 -7q4 -4 5 -7q7 -12 14 -16.5t16 -4.5q10 0 16 2l4 67q5 99 21 247l3 35h-17
q-7 1 -31 2.5t-44 8.5q-23 9 -37 24q-16 16 -16 34q0 11 6.5 20.5t15.5 9.5q8 0 14.5 -6.5t6.5 -15.5q1 -15 6.5 -20.5t17.5 -8.5q29 -10 71 -10h11q0 5 2 15v2q3 46 10 78q2 15 11 25q7 10 18 10q8 0 18 -8t10 -16v-2q0 -8 -7 -16q-7 -7 -9 -17.5t-2 -12.5l-1 -4l-8 -52
q67 4 162 23q84 17 153 35.5t69 19.5q16 4 23 11q7 5 12 5q7 0 16 -7q8 -7 8 -19q0 -13 -10 -19q-3 -1 -13 -4q-18 -5 -87 -21.5t-158 -35.5q-98 -22 -180 -27q-10 -76 -15 -140v0q-7 -63 -12 -130q-1 -4 -1 -12l-3 -61q111 25 141 46q5 5 12 5q9 0 16 -7q8 -8 8 -18
q0 -13 -10 -19q-3 -1 -13 -4l-153 -33h-3l-4 -88l-1 -84q0 -102 7 -190q7 -102 17 -172v0l7 -38q3 -11 7.5 -17t15.5 -7q25 -4 25 -31q0 -13 -8 -21t-21 -8q-20 0 -36 19z" />
    <glyph glyph-name="G" unicode="G" 
d="M390 -368q-11 39 -17 117v3l-1 23v1q-1 4 -1 12l-2 32q0 17 -1.5 56t-1.5 72l1 76l3 69q-2 -3 -5.5 -16.5t-5.5 -20.5q-20 -72 -46.5 -154t-48.5 -133q-30 -68 -57 -109q-13 -21 -30 -39q-28 -27 -57 -27q-33 0 -61 37q-16 22 -26 51q-23 58 -31 136q-10 81 -10 169
q0 309 128 603q24 57 63 113q20 26 42 43q29 20 53 20q37 0 64 -36q12 -18 23.5 -55t11.5 -99v-65q0 -13 -2 -19q-3 -14 -16 -18q-3 -2 -11 -2q-5 0 -8 1q-10 2 -18 9q-8 8 -5 19q12 52 12 104t-9 79q-7 22 -21 38q-7 7 -16 7q-5 0 -11 -3q-12 -4 -23 -14q-4 -4 -22 -24
q-7 -9 -19 -27q-13 -20 -33 -60q-93 -193 -126 -422q-13 -94 -13 -194q0 -66 5 -115q9 -106 35 -178q11 -30 25 -47q11 -12 17 -12q7 0 17 9q20 19 38 51q33 54 64 136q29 77 61.5 192.5t36.5 130.5l33 118q2 10 10 28q8 12 21 12q22 0 25 -19v-19l-1 -35q-4 -66 -7 -99
q-10 -142 -10 -212l1 -43q3 -99 12 -196l7 -44q2 -13 7 -19.5t18 -7.5q13 -2 20 -11t7 -21q0 -16 -9.5 -26t-23.5 -10q-36 0 -55 84z" />
    <glyph glyph-name="H" unicode="H" horiz-adv-x="510" 
d="M400 -441q-13 0 -21 11q-5 7 -7 24q-9 59 -14 145q0 20 -1.5 62.5t-1.5 78.5q0 61 2 96q3 100 18 260q1 4 1 12q2 12 4 39l-114 -31q-133 -34 -224 -39v-21q-1 -16 -1 -47q0 -105 12 -212q10 -111 32 -208q9 -36 19.5 -63.5t26.5 -50.5q7 -10 7 -19q0 -8 -8 -13
q-7 -5 -13 -5q-13 0 -21 11q-20 28 -38 75q-22 68 -34 161q-24 163 -24 330v30l1 6q0 3 -0.5 10.5t0.5 15.5q-32 2 -48 7q-22 7 -37 22t-15 33q0 10 4.5 19t11.5 11q2 1 6 1q8 0 14.5 -6t6.5 -15q0 -15 5.5 -20t17.5 -8q18 -4 35 -6l2 23l3 43l6 70q19 171 46 298
q8 30 16 45q10 17 25 17q7 0 14 -4q13 -8 13 -19q0 -6 -5 -14q-8 -12 -12.5 -25t-9.5 -33q-43 -189 -55 -370q-1 -5 -1 -15v-16q87 5 209 35q60 15 132 37q7 69 18.5 147t14.5 95q4 22 10 66l4 22v1q6 49 14 78q4 17 13 26q8 9 18 9q8 0 18 -7q9 -7 9 -17v0q0 -10 -8 -18
q-7 -7 -10 -17t-3 -12l-1 -5q-7 -29 -21.5 -113t-18.5 -117v0q-7 -42 -19 -126l52 17q16 6 23 12q6 6 13 6t15 -6q8 -8 8 -18q0 -12 -10 -20l-13 -5q-6 -2 -30 -9t-62 -18q-5 -50 -5 -49q-8 -71 -10 -104q-10 -109 -10 -228v-45q3 -145 19 -256q1 -9 5 -27q2 -8 2 -11
q0 -11 -10 -17q-6 -2 -10 -2z" />
    <glyph glyph-name="I" unicode="I" horiz-adv-x="174" 
d="M63 -434.5q-12 5.5 -19 15.5q-7 9 -11.5 21.5t-8.5 26.5q-11 41 -15 84t-7 108q-2 68 -2 102q0 188 30 449l3 26q9 77 13.5 130.5t4.5 106.5q0 28 -4 51q-2 14 -6 25l-2 2l-6 -1q-7 -2 -12.5 -7.5t-9.5 -11.5q-86 -101 -115 -203q-8 -29 -8 -54q0 -11 1 -17q1 -10 5 -15
t16 -6q10 -1 16 -6.5t6 -13.5q0 -12 -21 -22q-9 -4 -22 -4q-29 0 -42 21q-14 23 -14 59t15 79q35 99 113 192q16 19 34 33q10 7 20 11q14 4 22 4q10 0 15 -2q16 -5 29 -25q0 -2 2 -4q13 -30 13 -73q0 -52 -12 -152q-2 -26 -8 -78q-14 -117 -21.5 -197t-10.5 -160
q-2 -70 -2 -105q0 -140 15 -259l7 -41l4 -20q4 -16 21 -22q12 -4 18.5 -12t6.5 -18t-7.5 -16.5t-19.5 -6.5t-24 5.5z" />
    <glyph glyph-name="J" unicode="J" horiz-adv-x="350" 
d="M-5 -455q-31 0 -50 25q-20 26 -27 70q-4 23 -4 52q0 25 3 52q15 142 73 269q28 62 72 115q8 10 12 13q8 8 19 8q9 0 15 -6t6 -12q0 -9 -10 -19q-38 -43 -63 -91q-78 -156 -84 -325q-2 -51 10 -82q12 -34 29 -34q14 0 33 18q31 30 57 80q39 78 68 185q49 184 52 417l1 114
q0 97 -7 160q-3 32 -9 67q-18 -2 -55 -2q-47 0 -78 5q-46 5 -77 25q-24 16 -24 35q0 11 6.5 18t18.5 9q4 1 11 1q16 0 20 -11q2 -4 3 -10t1 -8q3 -15 16 -20t34 -7q42 -6 83 -6q24 0 35 1q-11 46 -26 78q-3 6 -3 11q0 10 11 15q6 3 12 3q7 0 13.5 -3.5t9.5 -8.5q4 -7 8 -21
q11 -38 17 -71q16 1 64 8q54 10 81 16q35 7 55 14q18 5 26 10q11 8 20 8q11 0 17 -5.5t6 -13.5q0 -5 -3 -11q-7 -12 -33.5 -19.5t-96.5 -18.5l-41 -6q-46 -8 -88 -12v0h-2q2 -12 4 -36q9 -85 9 -199q0 -61 -1 -92q-4 -165 -24 -303t-68 -264q-24 -61 -50 -102
q-28 -40 -47 -56q-17 -16 -34 -22q-11 -5 -26 -5z" />
    <glyph glyph-name="K" unicode="K" horiz-adv-x="479" 
d="M66 -440q-11 12 -20 34q-17 39 -27 97q-17 94 -22 196q-4 94 -5 141q0 10 -1.5 16.5t-7.5 11.5q-8 6 -8 15q0 6 4 10q7 8 7 19q0 5 -1 8v6q0 8 2 10q6 8 8 17t2.5 18t0.5 12q8 127 36 342q9 72 26 190q4 29 12 45t24 16q12 0 20.5 -7t8.5 -16q0 -7 -5 -14
q-7 -9 -10 -19.5t-6 -26.5q-21 -119 -45 -304q-17 -129 -22 -232l-1 -12q0 -7 4 -14q9 1 16.5 7t10.5 8q73 57 149 152q156 196 226 389l8 20q8 14 20 14q7 0 15 -5q13 -8 13 -20q0 -7 -3 -13l-18 -35l-19 -38q-105 -220 -276 -411q-43 -46 -107 -99q-6 -4 -9.5 -8t-3.5 -7
q0 -6 4 -14q18 -50 56 -150q17 -46 47 -90q18 -23 33 -36q14 -11 30 -11q12 0 24 6q19 10 36 28q120 130 171 289q7 25 7 45q0 13 -1 20q-1 2 -1 6q0 14 13 18l7 1q7 0 13.5 -3.5t10.5 -10.5q5 -6 7 -21q1 -30 -6 -57q-8 -34 -28 -80q-50 -110 -130 -207q-31 -36 -57 -54
q-29 -19 -58 -19q-38 0 -72 31q-27 24 -54 72q-17 30 -29.5 61.5t-31.5 83.5q-2 4 -5 15t-9 18q-6 -3 -5.5 -7.5t0.5 -5.5q3 -101 10 -180.5t24 -156.5l10 -37q2 -11 7.5 -16t17.5 -5q13 0 20 -8.5t7 -21.5t-9 -21.5t-24 -8.5q-17 0 -31 14z" />
    <glyph glyph-name="L" unicode="L" horiz-adv-x="310" 
d="M92 -436.5q-42 28.5 -65 79.5q-30 68 -36 244q-2 48 -2 74q0 102 15 271q21 231 79 445q3 13 11 39v0q8 28 16 43q9 14 23 14q13 0 21 -7t8 -16q0 -8 -6 -16q-8 -9 -13 -21t-15 -42q-51 -162 -77 -363q-2 -10 -2 -15l-8 -78q-10 -110 -10 -239q0 -184 25 -281
q27 -111 87 -124q15 -4 32 -4q31 0 73 14q62 18 125 57q70 44 103 91q6 7 11 11t12 4q17 0 23 -15q2 -6 2 -9q0 -9 -6 -17.5t-12.5 -14.5t-8.5 -8q-19 -21 -45 -40l-4 -3q-55 -39 -121 -69q-76 -33 -138 -33q-55 0 -97 28.5z" />
    <glyph glyph-name="M" unicode="M" horiz-adv-x="780" 
d="M539.5 -516.5q-6.5 5.5 -6.5 14.5q0 8 3 18t4 14q58 225 90 425q45 287 45 517q0 134 -16 226q-7 46 -21 77q-15 33 -31 33q-13 0 -34 -23q-19 -23 -44 -68q-68 -129 -115 -302q-23 -85 -36.5 -176t-23.5 -202q-2 -26 -4 -38q-4 -20 -21 -20q-9 0 -16 5.5t-8 16.5
q-2 40 -2 61q0 64 1 127.5t1 127.5l-1 44q0 140 -21 246q-10 49 -27 84q-18 39 -41 39q-19 0 -43 -29q-12 -13 -22.5 -31.5t-19.5 -36.5q-31 -70 -55 -169q-36 -159 -43 -310q-1 -29 -1 -86q0 -184 37 -346q1 -7 5 -19q3 -15 8.5 -22t20.5 -6q10 1 15.5 -5.5t5.5 -16.5
q0 -7 -1 -10q-9 -31 -36 -31q-20 0 -33 20q-9 14 -19 46q-23 83 -37 196q-11 104 -11 197q0 84 9 169q21 209 73 355q21 56 42 93q22 37 47 58q27 21 55 21q36 0 64 -34q19 -26 33 -67q13 -40 20 -82t11 -95q2 -25 4 -73l1 -35q0 -3 0.5 -11t6.5 -15l27 101q42 154 108 278
q14 27 38 62q19 23 31 32q22 19 47 19q33 0 55 -30q16 -21 27 -55q18 -56 23 -134q6 -64 6 -161q0 -136 -16 -293q-19 -178 -49 -343q-26 -144 -72 -330q-2 -8 -4 -11q-4 -12 -17 -12q-10 0 -16.5 5.5z" />
    <glyph glyph-name="N" unicode="N" horiz-adv-x="660" 
d="M354 -443q-4 14 -4 17q0 7 5 12t16 11q8 4 10.5 12.5t3.5 10.5q31 80 65 189q84 282 120 498q20 122 20 221q0 81 -18 131q-9 27 -22 41q-16 19 -36 19q-13 0 -24 -5q-21 -10 -44 -33q-29 -29 -64 -84q-78 -127 -132 -298q-40 -123 -54 -235q-4 -35 -6 -106l-1 -46
l-8 -178q-2 -26 -4 -38q-1 -16 -18 -19h-3q-6 0 -12 4t-9 11q-5 12 -5 33l-1 59l1 43q7 142 20 229q2 12 4 36v94q0 211 -20 360q-10 76 -33 138q-13 34 -29 53q-11 13 -19 13t-20 -12q-12 -13 -28 -45q-39 -82 -60 -187q-31 -146 -31 -302q0 -47 10 -75q4 -7 4 -13
q0 -9 -10 -16q-6 -3 -14 -3q-14 0 -21 10q-10 11 -14 36q-6 37 -5 69q5 184 38 324q19 82 49 153q13 31 28 54q10 16 23 28q22 19 47 19q28 0 50 -22q19 -18 35 -53q23 -50 38 -136q8 -52 12 -104.5t8 -132.5l1 -22v-4v-6q0 -10 4 -19q8 9 10.5 20t3.5 14q52 157 124 279
q34 58 66 92q31 33 61 48q24 12 48 12q23 0 43 -11t35 -33q20 -28 28 -66q11 -49 11 -107q0 -37 -3 -73q-12 -165 -69 -395q-69 -285 -139 -474q-3 -9 -17 -44q-7 -16 -20 -16q-18 0 -25 20z" />
    <glyph glyph-name="O" unicode="O" horiz-adv-x="490" 
d="M176 -443q-29 0 -56 24q-22 19 -39 52q-29 55 -48 136q-18 83 -23 128q-15 139 -15 332q0 71 4 106q1 17 7 49q4 16 11 25.5t23 12.5q6 1 7.5 4.5t2 7.5t0.5 6l6 34q5 34 10 56q17 80 44 133q21 40 44 62q31 30 68 30q43 0 80 -40q27 -28 49 -80q45 -108 50 -241
q2 -48 2 -72q0 -277 -93 -590q-19 -63 -50 -114q-18 -28 -36 -43q-22 -18 -48 -18zM218 -366q34 53 56 128q90 307 90 585q0 120 -31 227q-20 69 -47 108q-28 43 -55 43q-25 0 -52 -35q-20 -25 -41 -72q-29 -71 -43 -173q-28 -192 -28 -395q0 -43 1 -65q2 -104 17 -179
q10 -50 29.5 -89t56.5 -70q4 -3 7 -7q6 -6 6 -13q0 -4 -3 -8q-6 -9 -18 -9q-6 0 -15 3t-15 4l-5 2l2 -4q2 -8 12 -18q14 -12 22 -12q9 0 20 9q18 13 34 40z" />
    <glyph glyph-name="P" unicode="P" horiz-adv-x="454" 
d="M45 -441q-9 11 -19 35q-10 30 -20 126.5t-10 242.5q0 34 2 118q-4 -1 -5.5 -1.5t-7.5 -4.5q-5 -4 -12 -4t-15 5q-9 5 -9 14t13 15q9 3 18.5 7t18.5 7l3 36q17 196 38 351q10 78 14 124l1 7q0 7 -5 7q-2 0 -10 -3q-10 -4 -18 -8l-14 -7q-11 -7 -14 -18q-2 -9 -7.5 -13.5
t-11.5 -4.5q-8 0 -16 6q-12 9 -12 23q0 8 4 15q7 12 29 26q31 16 66 27q18 4 19 21q2 17 6 31t10 21q8 9 17 9q6 0 13 -5q10 -6 10 -16q0 -7 -2 -11t-4 -8.5t-4 -8.5l-1 -8q0 -8 14 -7l27 3l44 4l40 1q94 0 181 -28q42 -12 79 -38q31 -23 47 -52t16 -63q0 -24 -9 -50
q-15 -46 -51 -92q-41 -50 -109 -101q-100 -75 -252 -149q-56 -26 -85 -38q-8 -3 -10.5 -9.5t-2.5 -18.5q-2 -74 -2 -131q0 -186 16 -280l7 -38q2 -11 7.5 -16t16.5 -6q12 -1 18.5 -8.5t6.5 -19.5q0 -14 -9 -23t-23 -9q-18 0 -32 16zM51 143q5 0 9.5 2t6.5 3q78 34 131 62
q113 60 194 126q49 41 78 80q33 44 42 83q4 15 4 32q0 52 -47 85q-27 20 -67 32q-76 22 -157 22q-56 0 -117 -11q-17 -3 -21 -6.5t-6 -20.5q-20 -144 -29 -216q-14 -105 -26 -252l-1 -11q0 -7 2 -10h4z" />
    <glyph glyph-name="Q" unicode="Q" horiz-adv-x="490" 
d="M314 -538q-26 25 -54 66q-29 42 -35 52q-7 10 -18 9q-42 -4 -83 35q-15 15 -35 45q-2 6 -6 6q-2 0 -3 -1q-20 -14 -31.5 -27t-12.5 -33q-2 -23 -22 -23q-10 0 -18 7t-10 17q-1 3 -1 7q0 10 7 26q19 35 50 56q8 6 13 10t5 9t-6 20q-35 90 -49 189q-17 110 -17 221
q0 166 37 366q17 85 28 121q7 26 17 44q9 19 26 19q23 0 31 -23l1 -1l2 -6t2 -7q1 -3 1 -9t-3 -11q-7 -7 -17 -7q-9 0 -12 -4t-6 -13q-17 -54 -37 -156q-25 -135 -30 -272v-7l-1 -37q15 276 102 490q21 52 47 89q20 29 43 44q19 12 41 12q29 0 52 -22t39 -62q16 -38 26 -96
q21 -123 21 -271v-59q-5 -183 -33 -360q-18 -106 -42 -177q-14 -41 -28.5 -70.5t-38.5 -52.5q-6 -8 -1 -14l17 -26q4 -6 22.5 -33.5t39.5 -49.5q47 -49 106 -49q39 0 77 23q43 26 86 82q2 2 4 6l8 9q8 9 18 9t17 -6q8 -7 8 -16q0 -6 -6 -15q-55 -75 -117 -107
q-42 -21 -87 -21q-74 0 -134 55zM233 -347q7 8 16 22q18 32 31 72q28 80 46 198q26 170 29 338q1 19 1 56q0 123 -15 223q-10 74 -26 120q-12 36 -27 52q-11 14 -24 14q-9 0 -20 -8q-20 -15 -34 -38q-32 -51 -54 -115q-81 -237 -81 -471q0 -22 2 -64v-7q0 -22 -8 -26
q-4 -3 -9 -3q-6 0 -25 7h-1h-1q-1 -4 -0.5 -7t0.5 -5v-2q11 -94 26 -152q14 -60 36 -115q4 -10 9 -14.5t14 -5.5q26 -3 58 -27q27 -23 41 -42q7 -7 9 -7q3 0 7 7zM131 -321q5 -14 16.5 -27.5t23.5 -20.5l2 -1q1 -1 6 -3.5t10 0.5q-29 38 -58 52z" />
    <glyph glyph-name="R" unicode="R" horiz-adv-x="440" 
d="M59 -475q-26 3 -37 30q-12 25 -18 68q-14 95 -18 199q-3 70 -3 141q0 74 3 144q-3 12 -3 25q0 14 4 38q2 9 4 29q10 148 43 375l1 3l2 17v1q0 5 -7 5q-6 0 -13 -4q-5 -3 -13 -8.5t-17 -5.5q-25 0 -31 19q-2 4 -2 8q0 9 9 16q7 7 39 23q42 22 47 30q4 7 6 20q0 5 1 7
q4 20 7 30q5 25 17 40q11 11 24 11q12 0 22 -9q11 -9 11 -19v-1q0 -11 -10 -22q-7 -6 -10 -13.5t-7 -22.5l2 -6q4 -3 8 -3t8 2l4 1q63 12 123 12q72 0 137 -16q54 -12 93 -36q66 -39 66 -101q0 -26 -11 -51q-16 -40 -53 -81q-83 -92 -223 -179q-75 -47 -177 -92
q-8 -4 -13 -7t-5 -8q0 -1 4 -17l1 -1l33 -110q14 -43 23 -76q10 -32 26 -67q7 -15 19 -31q10 -14 18 -14q7 0 17 7q17 13 36 38q46 58 95 148q34 60 50 90q13 22 37 66q8 14 13 21q7 7 17 7t18 -7q11 -8 11 -18q0 -6 -5 -14q-29 -44 -74 -125q-31 -58 -62 -108
q-4 -7 -27 -41.5t-48 -62.5q-19 -21 -32 -29q-19 -13 -38 -13q-29 0 -56 30q-17 20 -34 60q-12 27 -22.5 60.5t-19.5 65.5l-5 16l-17 60q-5 16 -13 27l-1 1l-1 -1q-5 -18 -5 -37v-23v-12q0 -188 10 -314q3 -32 13 -89l2 -14q2 -16 6.5 -27t17.5 -20q6 -4 7.5 -10t-0.5 -12
q-6 -14 -21 -14q-2 0 -3 1zM61 181l7 3l3 1q195 79 345 218q37 34 63 71q21 30 28 54q5 18 5 30q0 39 -44 67q-18 10 -50 21q-60 20 -149 22q-79 -3 -149 -20q-14 -4 -21 -11.5t-9 -21.5q-20 -113 -33.5 -205.5t-20.5 -183.5l-1 -18q0 -8 1 -12q3 -16 17 -16q5 0 8 1z" />
    <glyph glyph-name="S" unicode="S" 
d="M121 -419q-9 0 -14 1l-10 1q-30 6 -48.5 26t-22.5 50l-1 19q0 38 18 81q13 31 24 51q54 94 153 143q3 1 14 6.5t21 5.5q8 0 15 -4q17 -8 17 -25q0 -9 -6 -13.5t-13.5 -7t-11.5 -3.5q-23 -7 -47 -20q-47 -25 -78 -65q-34 -44 -53 -101q-9 -26 -9 -54q0 -29 16 -44
q11 -10 32 -10h10l5 1q18 3 23 4q166 59 238 209q12 26 17 56q3 19 3 37q0 71 -35 134.5t-95 130.5q-35 39 -110 112l-12 11q-16 16 -37 36t-44 43q-34 36 -57 68t-34 60q-12 32 -12 59q0 46 35 81q25 23 67 40q75 27 163 27q30 0 46 -1q78 -6 147 -31q29 -11 44 -26
q18 -15 18 -36q0 -6 -4 -18q-8 -17 -24 -17q-8 0 -11 2q-21 8 -21 29v4q0 7 -1 9t-7 5q-39 19 -101 27q-39 6 -78 6q-70 0 -135 -20q-30 -10 -51 -25q-37 -27 -37 -64q0 -25 15 -55q14 -29 48 -71q30 -34 73 -75l25 -23q68 -66 101 -101q109 -114 147 -220q18 -54 18 -102
q0 -79 -47 -152q-74 -118 -213 -175q-28 -13 -63 -16h-10z" />
    <glyph glyph-name="T" unicode="T" horiz-adv-x="200" 
d="M25 -430q-11 14 -16 36q-9 44 -13 102v3q0 13 -1 20v1v10q-1 9 -1 28q-2 52 -2 82q0 26 2 96q5 108 19 260l1 12l8 75q8 82 34 246l10 66l3 21q-33 -3 -69 -3l-51 1q-55 3 -92.5 10.5t-67.5 29.5q-23 17 -23 36q0 11 7 18t20 8q3 1 8 1q17 0 22 -13q2 -6 4 -18
q3 -17 30 -24q7 -2 19 -4q18 -4 52 -8q20 -2 61 -2q48 0 85 4q6 29 10 44q4 17 12 26q9 9 19 9t18 -7q9 -7 9 -16v-1q0 -9 -8 -17q-9 -11 -13 -30l-1 -3h2q149 19 368 77q20 4 31 12q5 4 13 4q9 0 14 -5q10 -6 10 -16q0 -9 -11 -17q-6 -3 -22 -8q-238 -63 -413 -83
q-21 -115 -33 -196v0q-8 -48 -19 -130l-1 -14q-1 -15 -3.5 -37t-4.5 -34l-10 -105q-9 -114 -9 -228v-45q2 -85 9 -171v0q1 -13 5 -39q1 -11 5.5 -17t15.5 -7q23 -3 23 -27q0 -14 -8.5 -23t-22.5 -9q-21 0 -34 19z" />
    <glyph glyph-name="U" unicode="U" 
d="M173 -449q-29 17 -53 48q-36 45 -63 118q-36 95 -51 233q-10 86 -10 187q0 120 13 251q18 178 48 301q9 40 20 68q9 20 17 28q13 11 26 11q17 0 26 -13q17 -20 19 -60v-1q0 -7 -6 -13q-9 -7 -21 -7q-4 0 -14 4q-6 4 -12 5q-14 -37 -27 -105q-47 -246 -47 -477
q0 -192 41 -344q18 -68 46 -120q22 -39 40 -57q13 -13 23 -20q17 -13 34 -13q19 0 37 19q18 16 33 47q19 37 33 82q30 97 46 221q19 155 19 327q0 90 -4 166q-5 89 -19 157q-4 20 -12 29q-4 4 -9 16l-1 7q0 7 4 13t10 9q4 2 12 2q13 0 21 -8q9 -11 12 -28q14 -51 20 -125
q9 -103 9 -218q0 -106 -9 -228q-12 -178 -47 -313q-19 -76 -45 -126q-18 -35 -39 -56q-33 -31 -69 -31q-25 0 -51 14z" />
    <glyph glyph-name="V" unicode="V" horiz-adv-x="429" 
d="M67.5 -403q-12.5 30 -19.5 59q-16 58 -26 130q-13 96 -21 259q-7 119 -7 255q0 167 10 375q1 28 6 57q2 15 7 24q8 15 23 15q10 0 17 -6q14 -12 14 -29q0 -12 -8 -20q-11 -10 -13 -32q-9 -181 -12 -304q-2 -116 -2 -173q0 -155 10 -288t37 -256q5 -22 15 -49t21 -39
q6 -6 11 -6q6 0 13 9q28 35 50 103q44 130 77 346q45 288 47 609v2q0 11 -3 16q-2 5 -7 8.5t-7 4.5q-10 10 -10 16q0 13 9.5 21.5t21.5 8.5l9 -1q28 -10 30 -68v-3q1 -15 1 -45q0 -144 -19 -337q-17 -182 -43 -329.5t-74 -280.5q-14 -41 -39.5 -78t-54.5 -37q-20 0 -39 20
q-12 13 -24.5 43z" />
    <glyph glyph-name="W" unicode="W" horiz-adv-x="750" 
d="M84 -453q-30 0 -52 28q-17 21 -25 50q-33 98 -33 240q0 70 10 196q0 12 2 34q17 249 78 490q21 82 41 131q17 41 43 41q13 0 22.5 -9t14.5 -23q4 -9 4 -23q0 -16 -8 -25q-6 -7 -14 -7t-16 5.5t-10 13.5q-41 -103 -65 -224.5t-43 -274.5q-18 -160 -18 -296q0 -118 16 -211
q6 -40 20 -71q8 -15 14.5 -22t14.5 -7q13 0 32 21q21 22 42 61q64 116 107 275q21 77 33.5 160t21.5 183q2 23 5 35q3 18 19 18q9 0 15 -5.5t7 -14.5q3 -30 3 -61l-1 -200v-67q2 -128 21 -223q11 -49 25 -77q18 -35 39 -35q18 0 40 25q21 24 40 63q32 67 51 153
q34 145 40 282q1 24 1 73q0 175 -36 320l-4 17q-4 14 -9 20t-20 6q-9 0 -14 5.5t-5 14.5q0 3 2 9q7 28 33 28q18 0 31 -18q7 -11 12 -24.5t6 -17.5q23 -75 35 -179q11 -96 11 -183q0 -79 -7 -149q-21 -189 -69 -323q-20 -53 -39 -85q-22 -35 -45 -52q-23 -19 -50 -19
q-36 0 -61 31q-19 23 -31 61q-23 68 -30 161q-2 22 -4 66l-1 32q0 3 -0.5 10t-6.5 14q-6 -20 -11.5 -43t-13.5 -49q-38 -136 -101 -253q-22 -38 -36 -56q-17 -21 -28 -29q-23 -17 -45 -17z" />
    <glyph glyph-name="X" unicode="X" horiz-adv-x="340" 
d="M-52.5 -461q-7.5 6 -9.5 16v7q0 12 1 17q15 88 56 233q50 182 102 326q6 17 6 33q0 6 -2 16q-22 130 -37 337l-2 24q-6 80 -6 118q0 18 2 52v3q1 25 14 39q10 12 24 12l8 -1q11 -5 14 -13q1 -1 1 -4q0 -4 -2 -8q-9 -14 -11.5 -29.5t-2.5 -37.5q-1 -2 -1 -7v-36
q0 -72 9 -175l3 -44q2 -30 4.5 -52.5t4.5 -37.5t4 -41q5 -29 7 -36q7 7 11 20q2 4 2 6q68 175 138 339q21 47 37 75q10 17 23 30q11 10 28 10v0q10 0 17.5 -4t9.5 -11v-5q0 -11 -14 -17q-9 -4 -14.5 -11.5t-6.5 -8.5v-1q-16 -24 -34 -62q-97 -212 -177 -433q-5 -15 -5 -24
q0 -7 1 -11q46 -228 141 -451q9 -22 31 -64q11 -22 30 -38q9 -6 9 -15v-1q0 -5 -4 -9q-7 -9 -20 -9q-15 0 -27 14q-9 9 -16.5 20t-13.5 22q-40 77 -84 203q-44 133 -69 239v3q-4 13 -6 15q-5 -3 -7 -11l-1 -4q-78 -243 -120 -453q-3 -12 -3 -23t2 -17q1 -2 1 -7q0 -7 -3 -11
q-4 -9 -20 -12h-5q-10 0 -17.5 6z" />
    <glyph glyph-name="Y" unicode="Y" horiz-adv-x="420" 
d="M276 -450q-9 13 -15 37q-5 24 -7.5 43t-3.5 60v4q-1 6 -1 19v2v10q-1 9 -1 28v50q0 80 3 129q14 232 27 341q9 76 16 122q5 40 10 65q1 7 2 30t8 31q-4 -5 -5.5 -10.5t-2.5 -7.5l-80 -226q-32 -92 -59 -144q-16 -30 -26 -43l-18 -20q-16 -11 -29 -11q-21 0 -35 22
q-9 13 -17 47q-7 36 -7 79q0 32 3 62q13 190 84 423q3 11 9.5 27t9.5 25q8 16 15 22q10 8 20 8q27 0 27 -34q0 -13 -4 -41q-1 -13 -3 -24t-3 -19q-5 -25 -22 -25q-5 0 -13 3q-3 1 -7 1t-6 -3.5t-3 -8.5q-26 -86 -42 -170q-27 -137 -27 -246q0 -52 12 -92q1 -2 2.5 -9t8.5 -8
h1q5 0 8.5 6t5.5 8q21 31 43 85q15 37 30.5 80.5t19.5 56.5l22 65q47 130 69 184q1 3 5.5 13.5t11.5 18.5q8 13 22 13q18 0 22 -13t4 -34q0 -25 -5 -55q-68 -422 -68 -694q0 -90 6 -180q1 -13 5 -39q1 -11 5.5 -17t15.5 -9q23 -4 23 -28q0 -13 -7.5 -21.5t-20.5 -9.5
q-22 0 -38 22z" />
    <glyph glyph-name="Z" unicode="Z" horiz-adv-x="410" 
d="M-10 -432q-7 0 -23 2q-47 8 -67 37q-12 18 -12 42q0 16 4 29q8 35 32 81q36 68 95 155q56 84 85 126l102 152q75 113 115 198q39 82 46 149q1 8 1 23q0 28 -5 45q-12 52 -68 78q-33 16 -84 23q-54 6 -94 5v0h-8q-33 0 -66 -3q-10 -2 -15 -2q-13 0 -26 5q-10 4 -16 11
t-6 15q0 12 8.5 18t22.5 5q17 -2 53 -2h38q42 0 63 -2q54 -6 80 -12l22 -6q73 -20 110.5 -65t37.5 -111q0 -18 -3 -36q-10 -71 -50 -155q-43 -88 -117 -199q-54 -83 -111 -165l-105 -157q-39 -58 -69 -117q-15 -30 -23 -60q-4 -12 -4 -26q0 -16 6 -24.5t21 -11.5
q16 -4 38 -4h18q94 7 220 33q100 20 149 36q9 3 18 3q14 0 23 -10q7 -7 7 -16q0 -13 -13 -19q-7 -3 -21 -7h-2q-172 -42 -323 -59q-27 -3 -57 -3z" />
    <glyph glyph-name="a" unicode="a" horiz-adv-x="293" 
d="M216 -101q-29 0 -41 29q-12 28 -15 70q-6 66 -10 179q-8 -11 -13.5 -25.5t-9.5 -28.5q-18 -62 -39 -101q-11 -22 -23 -34q-13 -13 -30 -13q-22 0 -35 22q-6 9 -8.5 21.5t-3.5 15.5q-3 17 -3 34q0 32 6.5 63t11.5 46q10 33 22 56q14 24 24 34q19 19 41 19q11 0 25 -6l8 -3
q5 2 6.5 8t2.5 8q2 5 3.5 11t4.5 12q9 19 24 19q21 0 26 -26q2 -19 5 -213q0 -28 1 -36q0 -52 12 -103q3 -11 7 -15.5t15 -3.5h2q7 0 12.5 -5.5t4.5 -11.5q0 -14 -16 -19q-9 -3 -17 -3zM46 34.5q3 5.5 5 8.5q25 54 46 132q4 15 4 34q0 8 -2 24q-2 10 -8 11h-2q-4 0 -8 -6
q-13 -17 -16 -24q-36 -70 -36 -147q0 -14 1 -21q0 -8 1 -12.5t7 -8.5q5 4 8 9.5z" />
    <glyph glyph-name="b" unicode="b" horiz-adv-x="238" 
d="M32 -246q-19 86 -28 202q-1 7 -1 21q-14 -8 -16 -10l-8 -1q-14 0 -20 13l-2 8q0 5 3 10t4 6q8 9 26 20q5 3 6 7.5t1 12.5q0 27 1 41v4q0 18 -10 25q-14 9 -14 34q0 36 27 72q2 41 10 130q15 158 41 340q2 17 5 25q3 7 9.5 11.5t14.5 4.5q3 0 9 -2q20 -5 15 -23
q-11 -41 -17 -80.5t-15 -111.5l-9 -71q-10 -89 -18 -179q40 29 86 35q12 2 15 2q14 0 30 -7q31 -15 31 -56q0 -17 -6 -37q-12 -41 -44 -83q-44 -61 -105 -107q-2 -1 -4.5 -3t-6.5 -5q8 -162 35 -235q7 -19 7 -25q0 -10 -7.5 -16.5t-16.5 -6.5q-21 0 -28 35zM49 56l8 2l9 8
l1 1q28 25 55 61q30 40 43 74q7 27 8 37v2q0 10 -4 16q-4 4 -17 6h-1l-10 -1q-47 -7 -91 -48q-4 -4 -8 -14q-2 -40 -2 -60v-31v-45q2 -5 4 -6q4 -2 5 -2z" />
    <glyph glyph-name="c" unicode="c" horiz-adv-x="226" 
d="M51 -61q-28 0 -48 33q-17 31 -23 88q-2 57 11.5 114.5t43.5 108.5q8 15 19 23q11 9 22 9q7 0 19 -5q9 -5 16 -17.5t7 -22.5q0 -9 -6.5 -14.5t-15.5 -3.5q-10 2 -12 4q-4 3 -7 3q-4 0 -8 -7l-6 -10q-40 -83 -40 -172q0 -45 16 -80q5 -9 14 -9q6 0 14 5q8 8 36 40
q35 43 66.5 92t34.5 53q9 13 21 13q10 0 15.5 -5t5.5 -13q0 -7 -2 -10q-1 -3 -5 -9q-33 -52 -45.5 -70.5t-48.5 -63.5q-20 -25 -37 -42q-8 -9 -19 -17q-18 -15 -38 -15z" />
    <glyph glyph-name="d" unicode="d" horiz-adv-x="286" 
d="M178 -326q-6 14 -8 35q-8 72 -11 107q-5 93 -5 185q0 120 8 227q0 6 1 9q-5 -9 -9 -22q-38 -99 -74 -158q-16 -28 -32 -43q-16 -16 -35 -16q-5 0 -13 2q-14 4 -21 14.5t-10 26.5q-2 14 -2 23q0 20 4 36q17 91 73 157q37 44 75 55q16 5 19 22q17 68 38 163t30 143
q3 15 6.5 26t5.5 19t6 15q6 9 18 9q24 0 24 -22q0 -7 -1 -10q-12 -61 -18.5 -103t-13.5 -102l-12 -95q-23 -169 -27 -269q-2 -72 -2 -101q0 -135 19 -286q2 -23 14 -38q4 -5 4 -11q0 -7 -6.5 -12t-16.5 -5q-18 0 -28 19zM59 109q25 45 41 89.5t13 64.5q-41 -24 -71 -82.5
t-30 -111.5q0 -9 2 -25q20 20 45 65z" />
    <glyph glyph-name="e" unicode="e" horiz-adv-x="229" 
d="M68 -36q-28 0 -51 21t-32 56q-6 23 -6 46q0 41 12 87q8 38 35 75q15 23 38 39q17 12 34 12q21 0 34 -14.5t13 -36.5q0 -6 -2 -16q-3 -14 -7 -21q-42 -84 -106 -110q-14 -6 -14 -21q0 -22 10 -47q12 -32 36 -32q10 0 18 4q13 5 25 17q53 50 89 109l1 1l16 25q8 9 17 9
q11 0 16.5 -5t5.5 -13q0 -9 -5 -17l-20 -31v-1q-2 -1 -4 -5l-1 -1v0q-46 -65 -82 -97q-21 -19 -37 -26q-15 -7 -33 -7zM37 153q41 30 64 81l5 15v3q0 5 -4 8q-2 1 -7 -1q-11 -5 -13 -7q-39 -37 -60 -109q10 5 15 10z" />
    <glyph glyph-name="f" unicode="f" horiz-adv-x="290" 
d="M112 -512q-29 36 -54 99q-39 96 -60 238q-12 84 -15 169q-1 9 -5 14.5t-13 9.5q-8 3 -24 11q-9 5 -9 14q0 14 18 19q3 1 10.5 1t11.5 1.5t6 6.5q3 6 3 15v11q7 254 81 458q28 77 66 136q23 36 47 57q37 34 80 34q23 0 43.5 -11t34.5 -32q22 -33 25 -79q1 -9 1 -28
q0 -121 -64 -262q-5 -12 -14 -21q-13 -13 -31 -13q-10 0 -18.5 4.5t-12.5 11.5q-3 6 -3 12t4 11.5t12 6.5q13 3 19 10t12 21q52 117 52 221q0 35 -10 65q-6 18 -16 30q-16 19 -34 19q-15 0 -35 -14q-18 -13 -42 -45q-41 -58 -71 -137q-49 -132 -67 -274q-12 -87 -15 -174
v-20l1 -4l40 27q77 52 156 82q25 11 48 15h10q17 0 26 -14q4 -7 4 -15q0 -13 -8 -26q-6 -9 -14 -9q-7 0 -14 7q-5 7 -9.5 10.5t-8.5 3.5q-3 0 -16 -5q-71 -27 -172 -93l-39 -28q1 -8 9 -12q76 -49 121 -140q39 -80 58 -201q14 -75 14 -130q0 -20 -1 -30q-2 -24 -9 -41
q-7 -16 -19 -24.5t-27 -8.5q-14 0 -28 8q-20 11 -35 32zM171 -513q5 0 8 9q8 24 6 56q-8 151 -53 276q-29 80 -78 129q-2 2 -7.5 8t-13.5 9q-1 -2 -2.5 -3.5t-1.5 -2.5q0 -4 -0.5 -9t0.5 -12q12 -172 53 -303q25 -77 56 -124q14 -20 24 -28q5 -5 9 -5z" />
    <glyph glyph-name="g" unicode="g" horiz-adv-x="355" 
d="M-12 -688q-41 19 -56 67q-8 24 -8 59q0 65 25 136q29 82 85 173q81 126 183 229q16 16 13 37q-14 155 -37 275l-1 3q-2 14 -5 20q-13 -14 -13 -28q0 -7 7 -23q12 -25 12 -49q0 -19 -11 -25q-6 -2 -11 -2q-9 0 -17 7q-2 1 -3 3t-2 3q-2 4 -4 5q-3 -3 -7 -15l-3 -7
q-32 -70 -71 -124q-2 -2 -11.5 -14t-21.5 -20q-14 -10 -29 -10q-8 0 -14 3q-21 9 -24 40l-1 12q0 14 3 27q23 100 80 166q9 10 24 22q26 19 47 18h2q9 0 14 5t8 15q8 23 18 42q11 18 27 18t27 -20q7 -14 13 -42q20 -99 34 -229l7 -60h1q4 0 10 6l4 3l2 2q3 2 16 12.5
t27 16.5q10 5 18 5q4 0 12 -2q7 -3 11.5 -9t4.5 -13q0 -10 -4.5 -16t-12.5 -7q-16 -1 -27.5 -9t-29.5 -25l-21 -19q-5 -4 -6.5 -9.5t-0.5 -14.5q1 -21 1 -64q0 -53 -2 -83q-4 -120 -34 -235q-20 -74 -53 -136q-28 -49 -60 -79q-24 -24 -53 -37q-22 -11 -46 -11q-21 0 -36 7z
M26 81l2 3q48 63 78 143l9 23v5l-2 1l-3 -1q-16 -7 -33 -27q-48 -57 -68 -138v-3q0 -2 -1.5 -7t-1.5 -9q0 -3 2 -9q8 5 18 19zM77 -632q41 31 69 81q32 55 50 119q39 136 39 311v40l-1 6v1q-2 -1 -9 -5l-1 -2q-95 -101 -162 -212q-57 -93 -80 -174q-16 -51 -16 -100
q0 -36 12 -60q14 -29 42 -29q10 0 15 2q20 4 42 22z" />
    <glyph glyph-name="h" unicode="h" horiz-adv-x="324" 
d="M52 -126q-18 0 -32 21q-11 20 -16 42.5t-9 57.5q-7 64 -7 139q0 22 1 33v20q0 17 -6 24q-4 4 -4 10q0 8 7 14q6 5 8 20v4q21 190 67 327q23 64 48 106q16 26 31 38q16 13 33 13q16 0 27 -10.5t16 -27.5q4 -12 4 -26q0 -9 -2 -23q-11 -80 -49 -172q-24 -62 -46 -107
q-19 -40 -43 -84l-23 -39q-4 -7 -12 -18.5t-12 -20.5q-5 -11 -5 -26q-1 -17 -1 -51q0 -87 13 -165q0 -2 2 -13.5t9 -20.5q8 7 10 16.5t3 13.5q20 98 28 133q9 42 24 80q10 24 17 34q17 26 45 23l2 -1h1q22 -6 31 -30q8 -21 11 -51l3 -23q6 -59 12 -85q8 -41 23 -60l2 -1
q3 0 9 3q6 2 11 2q15 0 21 -13l2 -8q0 -7 -5 -11q-8 -11 -27 -11q-32 0 -53 41q-12 24 -18 50q-6 27 -17 100q-5 42 -9 53q-9 -4 -14 -16q-22 -58 -40 -149q-2 -11 -8.5 -41t-13.5 -54q-7 -25 -17 -40q-14 -20 -32 -20zM49 329l1 3q77 141 112 273q13 47 12 80v1v3q0 6 -4 8
q-7 -3 -12.5 -10.5t-6.5 -9.5l-2 -4q-20 -29 -40 -82q-37 -93 -58 -216l-3 -13q-1 -5 -3 -17t-2 -23q2 1 6 7z" />
    <glyph glyph-name="i" unicode="i" horiz-adv-x="199" 
d="M50 411q-8 7 -8 15q0 7 6.5 12.5t14.5 5.5q10 0 17 -6.5t8 -14.5q0 -8 -6.5 -13.5t-14.5 -5.5q-9 0 -17 7zM32 -42q-30 0 -44 36q-2 6 -3.5 14.5t-2.5 13.5q-2 10 -2 48q0 33 3 66q2 24 10 72q2 13 2 40q0 21 21 42q5 5 12 5q8 0 13 -4q15 -9 10 -24q-14 -48 -19 -85
q-13 -83 -11 -133q0 -33 11 -51q9 2 15 7t14 14q54 54 102 119q9 14 19 25q8 9 18 9q11 0 17.5 -5.5t6.5 -14.5q0 -7 -5 -14l-27 -34q-44 -58 -92 -106q-19 -21 -37 -31q-17 -9 -31 -9z" />
    <glyph glyph-name="j" unicode="j" horiz-adv-x="207" 
d="M-18.5 419q-7.5 6 -7.5 14q0 10 9 18t20 8q9 -1 16 -7t7 -13q1 -9 -8 -17.5t-19 -8.5t-17.5 6zM-186 -711q-35 0 -53 38q-14 29 -14 80q0 68 24 155q27 92 73 189q61 130 136 246q15 24 26 39t25 28q8 7 8 19q-1 45 -4 79.5t-11 67.5q0 2 -2 10t-8 14q-5 6 -5 17
q0 10 3 16t11 8q2 1 7 1q14 0 21 -10q2 -4 7 -18q19 -62 20 -124l2 -45q13 8 27 8q11 0 19.5 -7t8.5 -17q0 -8 -6 -14t-16 -8q-16 -3 -33 -19v-6q-7 -276 -75 -482q-30 -88 -61 -144q-27 -48 -57 -80q-20 -23 -43 -34q-14 -7 -30 -7zM-143 -643q25 26 47 67q44 79 76 192
q41 142 54 319q2 20 2.5 34.5t0.5 24.5q-8 0 -10.5 -4.5t-3.5 -5.5q-129 -201 -192 -377q-35 -99 -41 -176l-1 -26q0 -29 7 -54q4 -13 8 -19t11 -6t21 11q11 8 21 20z" />
    <glyph glyph-name="k" unicode="k" horiz-adv-x="367" 
d="M37 -352q-22 97 -30.5 203t-7.5 226v12q0 4 -1 5q-1 6 -11 8q-4 1 -9.5 1t-8.5 1q-13 5 -13 16q0 6 3.5 10t9.5 5q19 2 25.5 18.5t8.5 43.5l2 46q4 75 14 170q1 19 5 57l18 203q0 5 2 27t8 41q4 19 21 20l4 1q14 0 23 -11q5 -7 5 -11q0 -6 -5 -13q-6 -9 -8.5 -18.5
t-3 -20t-1.5 -15.5l-27 -279q-8 -92 -11 -138q-2 -6 -2 -47q0 -25 3 -33q2 1 13 9q55 48 99 100q4 5 14 17t17 24t10 23q6 20 20 20q13 0 19.5 -10t3.5 -24q-1 -4 -7 -17q-19 -33 -45 -64l-17 -19q-51 -54 -126 -109l-5 -3q40 -43 95 -83q17 -13 30 -18q15 -5 23 -5
q11 0 26 6q27 12 52 38q26 28 48 71q10 18 16.5 31.5t10.5 22.5q2 3 3 10.5t3 10.5q6 9 15 9q17 0 22 -17q3 -7 3 -14q0 -12 -7 -26l-10 -20q-14 -29 -25 -48q-26 -43 -47 -64q-21 -22 -50 -36q-25 -12 -51 -12q-37 0 -73 24q-51 33 -83 66l-6 6v-12v-4q0 -82 6 -163
q2 -15 4 -45q5 -69 11.5 -114t21.5 -77q6 -11 6 -21q0 -4 -2 -10q-1 -7 -8 -12t-15 -5q-21 0 -28 36z" />
    <glyph glyph-name="l" unicode="l" horiz-adv-x="120" 
d="M16 -458q-17 0 -23 18q-3 9 -3.5 20.5t-0.5 17.5q-8 136 -8 307q0 99 5 226l4 119v0q4 145 17 269t24 167q7 31 17 49q10 20 29 20q12 0 20.5 -8t11.5 -22q5 -21 5 -52q0 -159 -44 -377l-3 -10q-2 -10 -8 -14.5t-17 -6.5q-6 -1 -10 -11t-5 -23q-2 -44 -2 -65
q-2 -114 -2 -169q0 -56 2 -170q2 -86 4 -128q0 -24 2 -72q0 -21 7 -34q4 -8 4 -19q0 -29 -22 -32h-4zM70 645q-12 -23 -25.5 -117t-13.5 -153q0 -17 2 -31q33 160 37 301z" />
    <glyph glyph-name="m" unicode="m" horiz-adv-x="450" 
d="M306 -111q-17 5 -17 21q0 5 1 8.5t2 6.5l2 4q36 130 47 202q5 35 5 65q0 24 -2 36q-4 28 -16 44q-6 9 -13 9q-6 0 -11 -4q-15 -9 -27 -27q-24 -33 -43 -83q-23 -63 -33 -145l-2 -10l-3 -26q-4 -18 -20 -18q-9 0 -15 5.5t-6 13.5q-1 3 -1 9q0 7 2 25q10 75 7 135
q0 42 -10 74q0 2 -1 3q0 1 -2 7.5t-7 7.5h-2q-4 0 -11 -10l-3 -4q-12 -17 -23 -44q-30 -74 -39 -161l-2 -30l-3 -28q-2 -17 -7 -24t-15 -7q-20 0 -25 27l-9 65l-13 135q-2 19 -4.5 33t-4.5 24l-3 14q-1 2 -1 6q-1 1 -1 3v0l-2 7l-1 12q0 16 14 23q3 2 11 2q16 0 26 -10
q10 -8 10 -18q0 -6 -3 -12q-8 -12 -6 -27q1 -3 1 -8l1 -1v0q6 -46 8 -65v-2q0 -3 2 -7q3 2 4 5.5t1 4.5l1 5q2 5 11.5 33t24.5 54q11 20 25 33q16 15 34 15q21 0 38 -22q11 -15 17 -38q2 -4 2 -6q2 -9 5 -13q1 1 6 8l1 3q17 32 28 48q15 21 31 35q22 16 43 16q31 0 53 -31
q17 -26 22 -67q2 -22 2 -35q0 -38 -9 -88q-16 -91 -43 -187l-1 -2q-2 -8 -4 -14q-6 -13 -18 -13h-6z" />
    <glyph glyph-name="n" unicode="n" horiz-adv-x="263" 
d="M169 -33.5q-12 7.5 -18 19.5q-6 13 -12 37q-7 37 -11 111l-2 40l-3 42q-9 -5 -11.5 -13t-3.5 -10q-15 -37 -25.5 -80t-12.5 -52q-9 -42 -18 -63q-1 -3 -5 -11t-8 -12q-9 -11 -21 -11q-19 0 -26 22q-3 13 -3 29q0 34 1 59t2 42q2 34 2 51q2 44 2 67l1 11q0 8 -4 13
q-4 10 -4 14q0 7 6 21t22 14q10 0 16 -5.5t6 -15.5q1 -25 -1 -75q0 -17 -1 -33.5t-1 -33.5l-1 -9q0 -5 3 -11q5 4 7 10.5t2 8.5q14 52 34 96q10 22 20 33q11 12 25 12q9 0 17 -6t12 -16q5 -15 7 -36l9 -130q4 -44 11 -74q3 -12 7.5 -19t15.5 -9q11 -3 11 -16q0 -8 -7 -13.5
t-17 -5.5q-11 0 -23 7.5z" />
    <glyph glyph-name="o" unicode="o" horiz-adv-x="199" 
d="M40 -71q-21 2 -33 25q-12 22 -15.5 47t-3.5 56q0 23 1 34q0 14 1 21q-2 28 1 58.5t4 36.5q4 38 5 57q2 24 11 43q8 14 19.5 22t24.5 8q24 0 41 -23q9 -12 19 -40q15 -48 15 -112q0 -90 -29 -168q-9 -28 -24 -46q-15 -19 -34 -19h-3zM52.5 -9.5q3.5 6.5 5.5 12.5l1 4
q27 72 27 155q0 60 -13 102l-1 5q-1 2 -3.5 10.5t-8.5 13.5q-5 -5 -8.5 -9.5t-3.5 -8.5t6 -15q8 -13 8 -18t-10 -18q-5 -5 -4 -14l1 -6q0 -2 1 -5.5t2 -5.5q1 -4 1 -10q0 -11 -8 -15q-10 -7 -10 -21l-1 -13q-1 -11 -2 -31.5t-1 -35.5q0 -34 4 -61l1 -2q2 -16 7 -24
q6 4 9.5 10.5z" />
    <glyph glyph-name="p" unicode="p" horiz-adv-x="297" 
d="M32 -521q-7 19 -10 43q-4 37 -5 52q-8 80 -8 210q0 65 1 97v109v3v3q0 7 -3 10h-3q-5 0 -11 -3l-4 -1q-8 -3 -13 -3q-19 0 -22 15v4q0 8 9 14q9 4 27 14l9 4q12 8 12 19v64v92q0 6 -2 8h-1q-5 0 -15 -7q0 -2 2 -6l2 -4q2 -6 2 -10q0 -6 -3 -9q-5 -7 -15 -7q-21 0 -39 8
q-17 7 -18 18l-1 3q0 11 12 20q24 23 52 30q18 5 22 16.5t4 33.5l-1 5q0 13 4 24q5 13 15 18q4 2 8 2q3 0 9 -2q11 -4 16 -15q1 -2 1 -7q0 -8 -4 -13l-1 -2q-4 -8 -4 -20q0 -8 2 -10q3 -3 6 -3t9 2q1 1 2.5 1t2.5 1q43 10 86 8q21 -2 30 -6q20 -7 31.5 -21t11.5 -33
q0 -9 -3 -18q-6 -24 -26 -53q-32 -45 -87 -88q-31 -25 -53 -38q-21 -12 -21 -35l1 -50q-1 -9 -1 -26l1 -70q0 -57 2 -175q4 -82 9 -127q2 -14 8 -50q2 -19 12 -31q8 -10 8 -15q0 -4 -6 -12q-8 -8 -17 -8q-6 0 -14 3q-13 6 -18 24zM91.5 108.5q18.5 15.5 21.5 17.5l2 2
q43 37 68 77q13 23 15 41q1 1 1 4q0 17 -19 21q-7 2 -20 2h-2q-37 0 -90 -14q-8 -3 -11.5 -7.5t-4.5 -12.5q0 -36 -1 -53l-1 -39v-44v-22q23 12 41.5 27.5z" />
    <glyph glyph-name="q" unicode="q" horiz-adv-x="242" 
d="M96 -540l-9 51q-2 9 -4 23q-3 10 -13 8h-10q-17 0 -29 9.5t-18 27.5q-6 21 -5 42q5 104 59 172q8 9 9 22q2 42 9.5 134t12.5 143l3 28l1 2q-6 -4 -8.5 -11.5l-3.5 -10.5q-18 -47 -35 -76q-11 -21 -26 -33q-12 -9 -25 -9q-20 0 -29 20q-8 17 -8 42q6 119 68 214
q18 29 45 45q18 10 35 10q13 0 26 -6q11 -7 18 -16t3 -17l-1 -2q-17 -77 -24.5 -149.5t-14.5 -188.5q-1 -26 -5 -78l-1 -22q0 -9 3 -13t9.5 -5t9.5 -2q30 -14 49 -51q24 -45 29 -114l1 -50q0 -76 -13 -147q-6 -31 -15 -49q-6 -12 -15.5 -19t-20.5 -7q-22 0 -35 23
q-15 22 -22 60zM52 105q20 46 33 91t10 61q-30 -27 -45 -51.5t-27 -61.5t-12 -64q0 -20 8 -36q13 15 33 61zM158 -559q1 5 1 6q16 78 16 149q0 42 -6 84q-7 47 -26 76q-7 11 -11 16t-13 7q-6 -8 -6 -21q0 -86 4 -152t18 -129q5 -27 14 -44q8 3 9 8zM72 -293q-20 -38 -20 -85
q0 -21 4 -30q3 -8 7.5 -12t13.5 -3z" />
    <glyph glyph-name="r" unicode="r" horiz-adv-x="244" 
d="M-7 -70q-9 9 -11.5 21t-3.5 31q-1 15 -1 46l1 72q0 16 1 24q2 91 10 189q1 15 3 22t11 12q6 4 12 4q12 0 19 -6.5t7 -17.5q0 -9 -3 -21t-4 -20l-3 -36q0 -16 -1 -26l-6 -149q0 -18 -1 -27l-1 -26q0 -7 1 -11q0 -1 0.5 -1.5l0.5 -0.5q1 1 2.5 3t1.5 4q3 10 5 20.5t5 20.5
q18 84 38 135q2 5 12 32t25.5 46t34.5 25q4 1 13 1q14 0 25 -7q16 -9 23 -25q5 -10 5 -19q0 -10 -6 -19t-18 -9q-17 0 -26 12q-3 4 -5 14t-4 14q-5 -3 -9.5 -10t-6.5 -10q-2 -5 -5.5 -11t-7.5 -14q-15 -32 -26 -68t-22 -85l-7 -31q-2 -8 -6.5 -29t-9.5 -37q-10 -34 -31 -39
q-3 -1 -8 -1q-13 0 -23 8z" />
    <glyph glyph-name="s" unicode="s" horiz-adv-x="240" 
d="M39 -58h-3h-2q-18 3 -27 19q-6 10 -6 25q0 8 3 19q4 16 15 29q13 20 38 43l10 8h1q2 2 7 6l4 4l-5 5q-15 15 -22 19l-30 21h-1l-9 6q-16 11 -29 21q-12 9 -19 22q-7 11 -7 25q0 15 10 30q9 10 22 19q51 30 104 36h10q11 0 21 -3q17 -4 24 -23q2 -5 2 -14q0 -13 -5 -23
t-13 -18q-6 -6 -14 -6v0q-8 0 -16 8q-7 7 -7 18q0 7 5 17l2 3h-3l-2 -1q-50 -3 -92 -30q-5 -3 -13 -11q-3 -3 -3 -5t3 -7q4 -7 15 -13l22 -14h1q2 -2 19 -13q9 -6 29 -21.5t26 -24.5q1 -2 2.5 -2t3.5 2q21 15 61.5 38t51.5 25h7q12 0 20 -8q12 -11 7 -25q-1 -9 -8 -12
q-5 -4 -13 -1q-2 1 -6 1t-14 -4h-1q-34 -14 -69 -38l-15 -10l-5 -4q0 -1 0.5 -3t0.5 -6q3 -13 3 -26q0 -38 -24 -68q-29 -35 -65 -35h-2zM78 4.5q17 19.5 19 41.5v2v8v2l-2 -1q-27 -21 -43 -43q-10 -14 -12 -23q-2 -5 0 -5q0 -1 4 -1v0q17 0 34 19.5z" />
    <glyph glyph-name="t" unicode="t" horiz-adv-x="109" 
d="M-21 -403q-4 8 -4 18q0 9 4 16q7 10 7 31q0 66 -1 98v73v93v133l1 72l1 11q2 111 5 161q5 126 11 193q-56 -8 -108 -8q-29 0 -58 3q-45 6 -74 24q-25 16 -25 36q0 9 6 16t16 10q4 1 11 1q13 0 19 -11q2 -4 3 -9t2 -9q4 -14 15.5 -18t33.5 -8q32 -3 61 -3q47 0 90 5l10 2
v5l11 118q5 40 12 59q4 11 16 16l7 1q9 0 16 -6q14 -11 10 -26q-17 -65 -27 -155v-5q13 1 69.5 13t83.5 22q60 22 75 35q9 9 20 9q12 0 18 -8t2 -19q-5 -12 -28.5 -22.5t-85.5 -29.5q-26 -8 -81.5 -18.5t-75.5 -13.5v0q-4 -33 -6.5 -75t-3.5 -59q-2 -38 -4 -57
q-2 -34 -4 -106l-2 -45l-1 -77q0 -36 1 -54v-90l3 -169l1 -43q1 -31 1 -94q0 -21 -1 -31q-3 -22 -21 -23h-4q-19 0 -27 18z" />
    <glyph glyph-name="u" unicode="u" horiz-adv-x="253" 
d="M139 -107q-18 5 -23 28q-5 21 -5 49q0 40 5 90q2 18 2 26l2 26q2 7 0 13l-12 -30q-21 -48 -22 -50q-14 -26 -23 -35q-13 -13 -28 -13q-19 0 -30 22q-6 12 -8 29q-6 32 -6 68q0 25 2 56t3 43q2 18 2 29l2 12q3 12 12 18q5 3 11 3q24 0 24 -22q0 -2 -2 -10
q-12 -57 -12 -119q0 -32 3 -65l1 -2q0 -7 4 -9q4 2 6.5 7.5t3.5 7.5l2 4q24 52 39 109q14 53 23 91l12 47l1 2q1 3 2.5 9t3.5 10q5 12 17 12q10 0 15 -5.5t5 -14.5q0 -11 -1 -16v-8l-5 -67l-13 -206q-1 -12 -1 -38q0 -23 1 -34q0 -7 2.5 -11t10.5 -5q14 -5 17 -14v-5
q0 -8 -7 -18q-12 -15 -28 -15q-5 0 -8 1z" />
    <glyph glyph-name="v" unicode="v" horiz-adv-x="260" 
d="M63 -111h-2q-25 1 -38 31q-10 22 -14 39q-13 47 -19 111q-1 11 -2 31.5t-1 35.5v38q0 96 11 161q2 14 10 26q9 10 21 10q10 0 16 -5q9 -6 11 -14v-3q0 -8 -7 -15q0 -1 -2 -4t-3 -4l-3 -10q-2 -7 -3 -18t-2 -18q-7 -79 -7 -134q0 -38 3 -79q4 -52 17 -101q0 -3 1 -4
q2 -19 10 -25q5 1 10 12q6 12 9 27q16 51 18 103q0 14 2 40q1 19 2 46t1 64q0 6 -0.5 25.5t5 32t20.5 12.5q11 0 16.5 -6.5t9 -14.5t4.5 -11q19 -39 30.5 -55.5t27.5 -16.5q9 0 21 6l5 4q12 7 19 8h4q18 0 24 -14q3 -3 3 -8q0 -11 -16 -19q-20 -11 -50 -11q-23 0 -43.5 9.5
t-33.5 29.5q-2 -7 -2 -18v-14q0 -27 -1 -40q0 -39 -6 -77q-6 -57 -25 -108q-8 -23 -19.5 -39t-30.5 -16h-1z" />
    <glyph glyph-name="w" unicode="w" horiz-adv-x="417" 
d="M45 -118q-26 1 -36 30q-7 17 -12 38q-11 55 -11 125q0 74 14 188q6 42 10 62q3 18 23 20h2q19 0 23 -13q7 -16 7 -26q0 -11 -8 -21q-7 -8 -9.5 -16.5t-4.5 -21.5q-15 -103 -15 -175q0 -67 10 -114v-5q0 -2 2 -8.5t7 -11.5q7 4 11 17q2 4 2 5q20 48 28 113l8 92l3 38v10
q0 3 1 4q0 20 18 20q17 1 22 -17l7 -44l5 -26q9 -57 24 -97q15 -39 39 -61q13 -12 24 -12q13 0 25 13q19 20 23 48q2 20 2 29q0 54 -30 104q-12 16 -21 21q-7 3 -14 10q-9 9 -4 20q5 10 17 10t23 -9q13 -11 41 -13q34 -2 38 -2q20 0 59 7q4 1 10 1q21 0 24 -17v-4
q0 -12 -15 -17q-12 -3 -23 -3l-81 -1h-8v-5q0 -6 4 -14l3 -6q16 -42 16 -82q0 -20 -5 -45q-9 -34 -28 -56q-25 -25 -53 -25q-20 0 -42 14q-31 22 -53 67l-6 12t-5 11l-4 11q-6 -5 -8 -17v-4q-7 -47 -24 -88q-7 -20 -18 -39q-7 -11 -14.5 -17.5t-20.5 -6.5h-2z" />
    <glyph glyph-name="x" unicode="x" horiz-adv-x="260" 
d="M155 -63q-25 0 -46 54q1 -1 -9 32q-13 55 -21 62l-4 2q-10 0 -16.5 -22t-7.5 -24q-14 -47 -32 -78q-10 -16 -23 -16q-6 0 -13 4q-13 6 -13 17q0 6 4 13q22 46 39 88q6 12 13 29t17 38q6 14 6 26q0 17 -12 43q-3 7 -10.5 27.5t-17 36t-20.5 23.5q-9 8 -9 16q0 6 5 11
q6 7 19 7q6 0 12 -2q13 -7 25 -27t26 -51q10 -23 12 -22q3 1 12 28q9 31 19.5 51.5t25.5 20.5q11 0 17 -7t7 -18v-2q0 -16 -10 -27q-14 -16 -22 -33t-18 -46q-2 -8 -8 -24q-1 -2 -1 -7q0 -7 3 -15l12 -38q27 -91 55 -139q5 -10 5 -14q0 -8 -8 -13q-7 -4 -13 -4z" />
    <glyph glyph-name="y" unicode="y" horiz-adv-x="335" 
d="M21 -612q-24 0 -42 25q-12 19 -16.5 41.5t-4.5 50.5q0 78 34 172q39 112 120 231l44 62q12 15 12 32q6 86 6 169q0 51 -1 76l-4 40q0 1 -1 3.5t-2 2.5q-4 0 -11 -26l-8 -31q-5 -21 -17 -63q-24 -73 -48 -119q-10 -22 -23 -35t-27 -13q-18 0 -30 23q-5 8 -9 28
q-5 35 -5 68q0 19 5 99l2 29q0 4 2 12q3 13 11 18q5 4 12 4q9 0 16 -5t7 -17q0 -7 -1 -10q-12 -58 -12 -119q0 -33 3 -66v-1q0 -6 4 -10q7 5 10 15q2 4 2 5q12 24 27 69l7 19q9 26 15 56q7 31 10 41q7 22 15.5 45t18.5 39q11 18 26 18q23 0 32 -24q7 -19 11 -59
q4 -47 4 -105q0 -32 -2 -96q0 -20 -1 -29q4 -2 6 -2q3 0 6 4t4 5q18 20 43 42t37 26q11 3 20 3q12 0 19.5 -6.5t7.5 -16.5q0 -14 -16 -18q-17 -3 -56.5 -42.5t-67.5 -75.5q-10 -13 -12 -33q-20 -187 -66 -352q-13 -44 -23 -73t-23 -57q-14 -31 -31 -51q-18 -18 -39 -18z
M20 -569q5 0 9.5 5t7 9.5t4.5 7.5q16 25 36 81q47 143 72 309q1 5 2.5 12t1.5 13t-1 8q-1 0 -2 0.5t-2 -0.5q-2 -1 -6 -5q-97 -144 -129 -279q-13 -54 -13 -90q0 -15 4 -41q0 -3 1.5 -10.5t4.5 -12.5t8 -6z" />
    <glyph glyph-name="z" unicode="z" horiz-adv-x="342" 
d="M-12 -663q-39 0 -56 38q-10 24 -10 53q0 47 20 112q26 83 75 174q65 121 157 254q11 15 11 23t-15 22q-19 19 -47 19q-10 0 -16 -1q-40 -9 -69 -34q-10 -10 -19 -10q-18 0 -18 16q0 13 9 26q23 35 55 99q32 66 44 101q8 26 9 39q1 3 1 8l-1 10q-2 9 -6.5 12t-13.5 2
q-40 -8 -71 -44q-3 -3 -2 -5.5t3 -5.5q6 -10 6 -17q0 -14 -22 -16h-6q-15 0 -24 8t-9 20q0 5 1 8q3 12 10 20q44 55 104 66q5 1 14 1q26 0 41.5 -16t15.5 -44q0 -22 -11 -55q-16 -51 -57 -127q-4 -7 -7 -12t-6 -9l-6 -12q0 -1 -0.5 -3t1.5 -2q5 0 14 3t13 4q14 3 27 3
q43 0 75 -32q7 -7 10 -7t8 8q12 16 35.5 47.5t28.5 37.5q16 20 22 25q17 11 30 11q10 0 17.5 -5t8.5 -13v-4q0 -8 -5.5 -14t-15.5 -7q-8 -1 -14 -6t-14 -14l-8 -10l-33 -46q-4 -5 -29 -39q-5 -7 -7 -12.5t1 -13.5q16 -51 16 -116q0 -37 -4 -68q-15 -137 -79 -267
q-25 -51 -57 -95q-30 -39 -60 -62q-21 -16 -40 -22q-12 -4 -25 -4zM38 -602q31 27 60 73q41 62 73 150q42 121 42 228q0 27 -1 41q0 3 -1 18t-7 27q-7 -2 -10.5 -7.5t-4.5 -7.5q-67 -99 -126 -204q-56 -101 -82 -187q-18 -54 -18 -100q0 -25 8 -44q7 -14 18 -14q5 0 13 3
q16 6 36 24z" />
    <glyph glyph-name="zero" unicode="0" horiz-adv-x="327" 
d="M101 -296q-24 2 -42 21q-16 17 -30 54q-23 66 -31 156q-9 90 -9 188q0 132 14 262q12 116 24 172q5 34 16 53q8 17 23 20h6q13 0 22 -8q10 -8 10 -19q-2 -8 -9 -14q-7 -5 -10.5 -11.5t-6.5 -16.5q0 -4 -2 -8q-8 -36 -9 -54q3 1 5 9q1 1 1 2.5t1 2.5q15 36 30 59
q15 25 31 35q18 13 36 13q29 0 46 -30q11 -18 15.5 -36.5t10.5 -48.5q14 -93 14 -196q0 -28 -2 -90q-8 -166 -42 -320q-16 -75 -38 -125q-16 -34 -31 -50q-20 -20 -42 -20h-1zM100 -262q5 0 9 4t5.5 7.5t2.5 4.5l3 5q9 14 15 30q15 32 26 75q54 200 56 441v32l-2 73
q-6 75 -19 129q-5 25 -14 40q-5 8 -8 8h-1q-4 0 -9 -5q-16 -14 -34 -50q-35 -73 -47 -157q-9 -61 -10 -102q-1 -14 -5.5 -19.5t-16.5 -8.5h-1q-13 -3 -15 -5q-2 -4 -2 -13q-3 -66 -3 -127q0 -134 19 -241q11 -61 30 -97q1 -1 1 -2.5t1 -2.5q4 -9 7.5 -13.5t9.5 -5.5h2z" />
    <glyph glyph-name="one" unicode="1" horiz-adv-x="231" 
d="M93 -303q-16 0 -24 17q-4 7 -5 16t-1 11v3q-2 36 -2 53q0 24 2 70v4q1 23 15 272l5 65q1 21 3 46.5t4 56.5l3 55q5 90 5 154v1q2 44 -6 70q-2 8 -4 8h-2t-6 -2q-21 -10 -29 -15q-3 -1 -4.5 -2t-2.5 -2q-3 -1 -3.5 -4.5t-0.5 -4.5q0 -14 -10 -21q-6 -3 -13 -3t-11 1
q-17 5 -25 12q-10 7 -10 18q2 10 11 17l4 3q31 15 37 18l34 16q4 2 10 4q12 4 24 4t20 -4q16 -9 24 -35q6 -26 6 -65q-1 -53 -7 -156l-3 -57l-2 -32l-3 -37l-3 -35q-14 -229 -17 -354q-1 -16 -1 -48v-31v-1q0 -15 11 -24q11 -11 11 -26q0 -12 -5 -21q-9 -15 -27 -15h-2z" />
    <glyph glyph-name="two" unicode="2" horiz-adv-x="397" 
d="M83 -272q-21 2 -37 7q-55 18 -62 76q-1 7 -1 18q0 1 0.5 2t-0.5 2v1q4 48 23 105q34 102 111 247l58 104v2q16 28 29 52t24 43q33 62 46 110q7 19 7 40t-7 27q-6 2 -12 2q-7 0 -12 -1q-30 -5 -56 -16q-57 -24 -105 -54q-9 -5 -18 -16q-8 -8 -21 -8q-8 0 -15 4
q-9 4 -12 14v5q0 8 4 13q8 9 20 16q79 47 140 68q38 15 73 15q26 0 45 -14q22 -18 22 -53q0 -30 -11 -63q-17 -50 -57 -125l-49 -87v0q-43 -75 -76 -139q-62 -121 -91 -210q-15 -49 -16 -77q-1 -4 -1 -14q0 -32 17 -47q16 -11 39 -11q61 0 127 30q14 7 25 21q9 12 22 12
q16 0 23 -12q3 -5 3 -9t-4 -12q-13 -18 -38 -31q-74 -34 -149 -37h-3h-5z" />
    <glyph glyph-name="three" unicode="3" horiz-adv-x="334" 
d="M8 -286q-25 2 -39 16.5t-14 37.5q0 21 8 35t22 14q4 0 10 -2q14 -6 14 -19q0 -8 -2 -12q-1 -1 -1 -2.5t-1 -2.5q-2 -5 -4 -11q-3 -8 2 -12q4 -4 12 -4h2q11 0 22 4q24 9 43 28q55 55 79 124q6 19 6 35q0 24 -10.5 33t-38.5 9q-18 0 -35 -3l-11 -2h-1l-21 -3q-5 -1 -12 -1
q-19 0 -29 8.5t-10 24.5q0 14 8 30q13 31 28 60q28 59 72 136l43 80q36 66 56 118q14 36 19 65l1 19q0 7 -2 21q-4 25 -31 34q-16 4 -35 6q-47 1 -93 -5l-2 -1q-6 0 -8 -2q-11 -8 -25 -8q-11 0 -21 3q-18 5 -18 22q0 7 5 13t13 8q12 4 32 6q12 2 20.5 2.5t14.5 0.5
q10 0 15 1q27 3 49 3l28 -1q33 -4 54 -13q52 -24 52 -86q0 -18 -6 -42q-6 -29 -17.5 -57t-28.5 -63q-16 -33 -38.5 -73.5t-30.5 -55.5v-1q-22 -38 -32 -58q-45 -82 -67 -132l-7 -21l16 3l10 1q27 5 44 5q45 0 70.5 -21t25.5 -57q0 -33 -16 -69q-28 -63 -77 -115
q-22 -23 -48 -37t-54 -14h-10z" />
    <glyph glyph-name="four" unicode="4" horiz-adv-x="328" 
d="M173 -291q-10 1 -16 6.5t-8 14.5q-2 16 -2 25q-1 11 -1 33q0 66 5.5 129t17.5 169q10 76 14 121q3 35 2 66v1l-8 -9l-2 -3q-25 -32 -51 -71h-1l-27 -40l-2 -3q-27 -36 -39 -48q-19 -17 -36 -17q-8 0 -13 2q-32 10 -32 66q0 24 4 48v3v0l2 15l33 304q3 37 11 71
q4 15 12 24q9 9 21 9q11 0 18 -6q9 -7 11 -16v-1q0 -7 -8 -17q-8 -7 -12 -26l-1 -4q-17 -74 -29 -214l-6 -64l-4 -34q-7 -45 -7 -81q0 -18 1 -26v-4l1 -5q0 1 2 3l3 4q23 27 52 70l1 1q4 7 14 21l2 3q31 45 52 69q13 13 21 19q11 7 24 7q8 0 12 -2q17 -6 22 -27q2 -9 2 -27
l-1 -29q-1 -14 -15 -144q-13 -117 -18.5 -192.5t-4.5 -151.5q0 -2 1 -7t3 -8q3 -5 3 -9q0 -6 -4 -11q-6 -7 -17 -7h-2z" />
    <glyph glyph-name="five" unicode="5" horiz-adv-x="402" 
d="M72 -289q-22 2 -37 18q-13 14 -19.5 30.5t-11.5 39.5q-7 42 -7 77q0 37 6 82q3 27 9 55q3 19 23 19q11 0 18 -5.5t7 -13.5v-1q0 -5 -2 -13v-2q-13 -66 -13 -135q0 -53 17 -96q1 -1 1 -4q2 -5 4.5 -8t6.5 -3q0 -1 1 -1q5 0 7.5 5t3.5 6q2 2 2 3q12 20 26 63q23 81 36 206
q9 89 9 159q0 45 -3 88q-8 127 -43 235q-1 1 -1 3h-7q-54 0 -88 17q-31 15 -31 35q0 19 24 27q12 2 15 2q13 0 19 -10q3 -3 5 -11q1 -1 1 -2.5t1 -2.5q5 -12 16.5 -15.5t31.5 -4.5l-14 31l-2 6q-4 8 -4 14q0 9 8 14q5 4 15 4q12 0 22 -6t10 -14q0 -5 -2 -8q-1 -3 -1 -7
q0 -3 2 -11l9 -23q34 2 50 4q6 0 14 2q48 6 69 12q13 3 23 9h2q8 4 11 7q11 8 20 8q3 0 9 -2v0q7 -1 11 -9q3 -6 0 -14l-5 -7h-1l-8 -6q-14 -8 -35 -13q-19 -5 -55 -11q-10 -2 -13 -2l-8 -2q-52 -7 -74 -8q46 -150 46 -335q0 -191 -37 -349q-12 -48 -24 -72q-12 -26 -25 -38
q-18 -16 -38 -16h-2z" />
    <glyph glyph-name="six" unicode="6" horiz-adv-x="277" 
d="M52 -289q-19 12 -36 42q-20 34 -36 92q-21 84 -21 204q0 144 30 311q12 73 22 120t23 93q6 23 15 40q10 19 27 19q11 0 19.5 -6.5t10.5 -17.5q2 -8 2 -11q0 -17 -15 -23q-7 -3 -10 -8t-5 -13l-1 -2q-17 -57 -35 -148q-28 -144 -37 -258q-1 -8 -1 -26q-1 -3 -1 -11
q9 4 14 9q4 4 6 5q22 16 48 16q30 0 54 -21q23 -19 35 -54q14 -36 15 -78q2 -34 2 -49q0 -82 -19 -149q-4 -16 -13 -36l-2 -6q-6 -13 -17 -26q-18 -19 -41 -19q-18 0 -33 11zM91 -252q11 14 21 44q12 40 18 110v0q2 24 2 35q0 27 -3 53q-4 44 -15 70q-7 17 -14 26t-20 11h-5
q-11 0 -18.5 -6t-18.5 -19l-1 -2q-10 -13 -20 -34l-7 -13q-7 -13 -7 -29q0 -12 2 -32q1 -9 2 -22t4 -31q10 -75 33 -123q11 -26 25 -39q7 -8 12 -8q5 2 10 9z" />
    <glyph glyph-name="seven" unicode="7" horiz-adv-x="365" 
d="M130 -295q-23 1 -37 23q-10 14 -10 31v34v14q0 39 5 79t15 96l1 6q15 84 38.5 175.5t28.5 111.5l7 25q-20 -4 -31 -7q-33 -7 -36 -7q-15 -3 -27 -3q-17 0 -34 5q-22 7 -33 21q-7 11 -7 18q0 9 8 15q8 8 20 8q11 0 20 -7l6 -7q7 -11 13 -15.5t14 -4.5t18 3h1v0v0h2
q21 4 75 16l4 16q24 95 29 151q1 8 1 27q0 17 -3 33q-5 17 -12.5 22.5t-25.5 4.5q-14 -1 -65 -13t-66 -16l-8 -2l-19 -5q-36 -10 -55 -12q-3 -1 -10 -1q-12 0 -19 6q-10 6 -10 16q0 7 4.5 12t11.5 6q21 2 60.5 11t50.5 12q84 22 110 24h15q64 0 79 -56q4 -16 4 -37
q0 -13 -2 -35q-9 -67 -32 -153q37 11 56 22q5 5 14 5t16 -7q10 -8 10 -19q0 -12 -12 -19q-4 -2 -12 -4h-1l-81 -16q-50 -194 -69 -299q-17 -97 -24 -178q-2 -24 -2 -36q0 -18 3 -36q2 -15 12 -18q6 -3 7 -4q7 -7 7 -14q0 -9 -5.5 -13.5t-14.5 -4.5h-3z" />
    <glyph glyph-name="eight" unicode="8" horiz-adv-x="308" 
d="M-9 -302q-30 18 -35 57q-2 14 -2 24q0 18 5 46q9 54 42 148q10 31 93 268q4 9 4 22q0 9 -3 18q-28 100 -56 158v1q-4 9 -7.5 13t-10.5 5q-13 1 -15 19t-2 28q0 38 17 72q18 34 50 51q24 12 48 12q21 0 36 -7q37 -17 48 -60l3 -18l1 -9v0q2 -37 -11 -99q-15 -69 -49 -169
q-4 -14 -4 -21t3 -18q31 -126 37 -223q1 -13 1 -40q0 -78 -20 -139q-16 -53 -45 -90q-25 -32 -55 -47q-23 -10 -41 -10q-16 0 -32 8zM128 343v3q19 56 31 113q10 48 10 77t-12 50t-35 21q-7 0 -11 -1q-16 -3 -30 -15q-24 -21 -32 -56q-1 -4 1 -12q3 -5 10 -25l12 -32
q32 -80 44 -121l1 -1q2 -8 5 -11q4 3 6 10zM75 -248q28 31 44 73q26 66 26 148q0 92 -22 193q-1 2 -1 5q0 1 -1 5.5t-4 7.5q-4 -4 -6 -13l-2 -4l-29 -83q-10 -27 -17 -49q-3 -9 -23 -65t-34 -110q-13 -52 -13 -84q0 -19 6 -34q8 -18 24 -18q4 0 14 2q20 7 38 26z" />
    <glyph glyph-name="nine" unicode="9" horiz-adv-x="327" 
d="M135 -277q-8 6 -10 16q-3 10 -5 34q-3 52 -3 106q0 70 6 198q6 130 16 226l6 54q-4 -3 -11 -12q0 -1 -2 -3q-30 -40 -55 -64q-17 -17 -33 -24q-12 -6 -25 -6q-5 0 -15 2q-19 8 -28 27q-8 19 -8 41q0 31 9 59q18 68 57 124q22 33 50 53q27 18 50 18q18 0 37 -11l3 -1h1v0
q1 1 3 6q0 4 1 5l2 10v0l5 16q8 21 25 21q26 0 26 -34q0 -19 -4 -32q-7 -38 -18 -61q-11 -22 -16 -44t-9 -56q-29 -225 -29 -532q0 -16 1 -38t2 -33l1 -11q0 -19 8 -30q8 -9 3 -18t-19 -11l-4 -1q-10 0 -18 6zM21 285q4 0 11 6l17 16q21 20 45 54v0q6 6 6 11t-4 9
q-4 5 -4 14q0 6 3 12q5 11 18 13q11 1 15.5 6.5t8.5 15.5l2 3l12 35q3 14 3 24q0 8 -1 13q-3 12 -11 17q-2 1 -6 1q-7 0 -15 -4q-21 -10 -38 -34q-49 -61 -67 -139q-6 -22 -5 -33v0v-6q0 -14 2 -21q4 -12 7 -13h1z" />
    <glyph glyph-name="asterisk" unicode="*" horiz-adv-x="477" 
d="M265 368q-12 0 -20 6q-4 4 -8 16q-13 33 -28 79q-1 2 -2.5 6.5t-6.5 8.5q-13 -15 -23.5 -32.5t-13.5 -23.5l-11 -16q-7 -9 -18 -9q-7 0 -13 3q-12 6 -12 13q0 5 3 9l50 75q7 12 7 14q0 3 -5.5 4t-15.5 1q-39 4 -63 13q-14 5 -21 12q-4 3 -5 7t2 8q6 7 17 7q7 0 19 -6
q15 -9 33 -11t45 -2q10 -1 8 9l-11 38q-16 61 -19 83q-2 16 -2 24q0 19 16 22h5q8 0 14.5 -3.5t9.5 -9.5q4 -8 2 -13q-3 -6 -3 -14q0 -5 2 -19q9 -47 21 -78q8 2 10.5 7t3.5 6q18 22 32 44l14 15q9 7 18 7q13 0 20 -6t6 -15q0 -19 -18 -23q-8 -2 -10 -5q-36 -48 -44 -61
q6 -3 11 -3q4 0 12 2q62 9 113 34q12 4 18 4q7 0 14 -3q9 -6 9 -12t-9 -11q-5 -3 -9 -4.5t-8 -3.5q-73 -28 -143 -36q-6 0 -14 -2q-6 -1 -6 -6q0 -3 2 -9q4 -12 15 -48.5t25 -66.5l2 -3l2 -9q0 -8 -8 -11q-6 -2 -11 -2z" />
    <glyph glyph-name="backslash" unicode="\" horiz-adv-x="240" 
d="M200 -324q-11 0 -20 14l-25 64q-100 255 -130 504q-8 77 -12 128.5t-4 104.5q0 27 4 50q3 19 12 30q9 12 23 12q8 0 13 -3.5t5 -9.5l-2 -8q-9 -14 -11 -27t-3 -36q-2 -83 11 -219q20 -191 99 -419q20 -57 60 -150q4 -12 4 -16q0 -10 -12 -16q-6 -3 -12 -3z" />
    <glyph glyph-name="colon" unicode=":" horiz-adv-x="199" 
d="M74 210q-11 2 -17 9q-5 7 -5 15q0 13 8 19q5 4 13 4q11 0 18.5 -6.5t7.5 -16.5q0 -11 -6.5 -17.5t-15.5 -6.5h-3zM63 90q-9 2 -15 9t-6 15q0 9 7 15q4 4 13 4q15 0 23 -11q4 -5 4 -13q0 -11 -7 -15q-5 -4 -13 -4h-6z" />
    <glyph glyph-name="comma" unicode="," horiz-adv-x="178" 
d="M16.5 -186q-6.5 6 -6.5 15q0 5 1 9t2 7q8 33 11 50.5t5 46.5l3 23l1 13q0 16 -12 23q-6 5 -6 12l2 8q5 10 20 12q15 0 26.5 -12t14.5 -31q0 -14 -1 -24q-4 -42 -8.5 -68.5t-12.5 -63.5q-2 -11 -5 -16q-5 -10 -18 -10q-10 0 -16.5 6z" />
    <glyph glyph-name="exclam" unicode="!" horiz-adv-x="227" 
d="M60 -111l-2 4q-8 16 -8 26q0 5 3 13q2 4 2 15v1l15 332l5 114l6 150q1 8 1 24l2 34q0 18 7 28q6 13 20 13t21.5 -9.5t2.5 -20.5q-7 -17 -9 -34.5t-3 -44.5l-1 -25q-3 -43 -8 -148l-2 -45q-10 -204 -13 -321q-1 -6 -1 -18q-1 -10 -1 -29q0 -25 5 -41v-5v-2v0v0
q-1 -16 -14 -21q-3 -1 -8 -1q-14 0 -20 11zM81 -268q-11 2 -17 10q-5 7 -5 14q0 14 8 20q8 4 13 4q11 0 18.5 -7t7.5 -16q0 -11 -6.5 -18t-16.5 -7h-2z" />
    <glyph glyph-name="numbersign" unicode="#" horiz-adv-x="600" 
d="M91.5 -273.5q-8.5 7.5 -11.5 19.5q-5 16 -3 41q3 53 19 152l9 50v5q0 9 -12 6l-70 -16q-26 -4 -38 -5q-2 -1 -6 -1q-13 0 -21 8q-7 7 -7 14q0 13 15 17q2 1 5 1q24 0 51.5 4.5t53.5 9.5l23 5q9 2 14 6t6 13q2 12 8 36l6 28l1 6q0 4 -3 5.5t-9 1.5l-14 -1q-22 0 -39 4
q-14 3 -20.5 12t-2.5 19q2 6 10 10.5t17 4.5q4 0 10 -2q5 -1 13 -7q5 -5 13 -5q12 -2 15 -2q12 0 17.5 6.5t9.5 25.5l9 45q24 108 32 168l3 33q1 21 19 21q9 0 16 -6t7 -15v-7q0 -20 -2 -29q-6 -33 -20 -99q-9 -44 -23 -109l-3 -14v-1q0 -9 8 -7q10 0 15 1l24 5q12 3 46 10
q23 3 28 27l21 92l9 39q3 12 10 47q8 32 8 47q0 9 4.5 14.5t11.5 5.5q6 0 12 -3q14 -7 14 -23q0 -10 -3 -21t-4 -15l-42 -168q-3 -7 -3 -16q0 -5 1 -8q11 1 26.5 5t25.5 6q28 6 38 8l7 1q12 0 19 -6t7 -14q0 -9 -8 -14q-31 -21 -71 -29h-4q-8 0 -12 4q-6 5 -13 5t-19 -4
q-9 -2 -11 -11q-8 -40 -11 -59q-1 -2 -1 -5q0 -9 10 -6l51 12q66 16 97 29l5 2q2 1 7 1q8 0 15.5 -4.5t8.5 -11.5l1 -5q0 -13 -20 -19l-121 -29q-38 -9 -49 -11q-16 -3 -17 -18q-18 -109 -29 -178q-1 -3 -0.5 -8t0.5 -8q0 -10 -5 -16t-13 -6q-5 0 -11 3q-13 9 -13 23
q0 12 7 49q8 49 23 125l1 12q0 6 -5 6q-2 0 -10 -2q-12 -2 -89 -21q-14 -3 -17 -18q-15 -76 -23 -142q-6 -41 -6 -79l-1 -5q0 -14 10 -21q5 -4 6.5 -10t-1.5 -12q-5 -12 -22 -12q-12 0 -20.5 7.5zM269 77q11 3 13 13q5 25 15 72q-75 -15 -110 -21q-8 -2 -12 -14l-12 -61
l-1 -6q0 -9 12 -6z" />
    <glyph glyph-name="period" unicode="." horiz-adv-x="167" 
d="M42 -30q-11 2 -17 9q-5 7 -5 15q0 13 9 19q4 4 13 4q11 0 18 -6.5t7 -16.5t-6.5 -17t-15.5 -7h-3z" />
    <glyph glyph-name="question" unicode="?" horiz-adv-x="418" 
d="M135 -80q-11 0 -17.5 6.5t-7.5 17.5v2q0 6 1 9v2q4 30 5 44l2 15q7 105 69 233q21 46 50 101l33 67q16 33 29 71q8 24 8 47q0 12 -4 15q-3 3 -11 3q-15 0 -28 -5q-121 -43 -185 -151q-11 -19 -9 -37v-4q0 -8 -5 -13q-6 -6 -15 -6q-13 0 -22 9t-9 22t6 26q10 23 24 43
q67 96 177 141q36 14 63 14q26 0 43 -17q16 -15 16 -42q0 -29 -17 -72t-50 -104q-12 -24 -14 -29l-15 -28q-18 -35 -36.5 -73.5t-31.5 -71.5q-32 -90 -29 -203v-3v-4q0 -14 -6 -20q-4 -5 -13 -5h-1zM128 -237q-9 1 -15 8t-6 15q0 11 7 15q5 5 13 5q14 0 23 -12q4 -4 4 -12
q0 -10 -8 -16q-6 -4 -12 -4z" />
    <glyph glyph-name="quotedbl" unicode="&#x22;" horiz-adv-x="348" 
d="M196 395q-9 0 -16.5 8t-7.5 17q0 12 8.5 54.5t11.5 59.5l7 32q5 34 5 82q-1 9 3.5 15t12.5 7h3q8 0 14.5 -5t8.5 -12q2 -3 2 -11v-5q0 -44 -13 -113l-21 -108q-2 -11 -5 -15q-6 -6 -13 -6zM87 427q-7 6 -7 15q0 6 4 16q10 47 16 97q0 7 2 23l1 14q0 15 -12 22q-6 5 -6 12
q0 2 2 8q6 12 20 12q15 0 26.5 -12t14.5 -30q0 -15 -1 -25q-5 -46 -8 -68t-12 -64q-1 -3 -2.5 -8t-3.5 -8q-5 -10 -17 -10q-10 0 -17 6z" />
    <glyph glyph-name="quotesingle" unicode="'" horiz-adv-x="248" 
d="M87 427q-7 6 -7 15q0 6 4 16q10 47 16 97q0 7 2 23l1 14q0 15 -12 22q-6 5 -6 12q0 2 2 8q6 12 20 12q15 0 26.5 -12t14.5 -30q0 -15 -1 -25q-5 -46 -8 -68t-12 -64q-1 -3 -2.5 -8t-3.5 -8q-5 -10 -17 -10q-10 0 -17 6z" />
    <glyph glyph-name="semicolon" unicode=";" horiz-adv-x="215" 
d="M79 216q-9 1 -15 8t-6 15q0 9 7 15q4 4 13 4q15 0 23 -11q4 -5 4 -13q0 -10 -8 -15q-4 -4 -12 -4q-4 0 -6 1zM54.5 -89q-6.5 6 -6.5 14q0 4 1.5 9t1.5 7q10 47 16 97l2 23q1 5 1 14q0 15 -12 23q-6 3 -6 11q0 4 2 8q6 12 20 12q15 0 26.5 -11.5t14.5 -30.5q0 -15 -1 -24
q-4 -38 -7.5 -64.5t-12.5 -68.5q-2 -9 -6 -16q-4 -9 -17 -9q-10 0 -16.5 6z" />
    <glyph glyph-name="slash" unicode="/" horiz-adv-x="326" 
d="M27 -309q-18 0 -23 18q-2 7 -2.5 14t-1.5 14q0 6 4 9q9 8 11 19.5t3 15.5q93 370 183 673l24 89q1 2 2 6t4 9q6 16 19 16q6 0 9 -1q17 -6 17 -21q0 -4 -2 -10q-10 -26 -26 -80q-103 -332 -188 -689q-2 -11 -6.5 -29.5t-5.5 -32.5q-2 -20 -19 -20h-2z" />
    <glyph glyph-name="underscore" unicode="_" horiz-adv-x="331" 
d="M48 -91q-9 0 -16 3q-11 6 -11 19q0 10 11 16q6 3 11 3t9 -3q7 -4 21 -4q29 0 77 5.5t83 12.5q2 1 8.5 2.5t11.5 4.5t9 3q6 0 9 -1q10 -5 10 -17v-1q0 -8 -7 -15q-9 -6 -28 -8q-91 -13 -157 -18q-11 0 -37 -2h-4z" />
    <glyph glyph-name="braceleft" unicode="{" horiz-adv-x="301" 
d="M81 -381q-3 4 -3 10q0 9 9 15q7 6 9 15q22 84 34.5 150.5t12.5 132.5q0 51 -14 96q-10 30 -28 48q-13 13 -26 13t-26 -13l-5 -6q-1 -2 -5 -6q-8 -8 -17 -8q-5 0 -11 3q-11 5 -11 15q0 3 2 9q43 115 71 265q26 130 26 217q0 45 -11 109l-1 9q0 16 15 20l7 1q9 0 18 -6
q9 -7 9 -18l3 -56q2 -40 2 -60q0 -14 -2 -38q-16 -186 -73 -381l-5 -16q0 -2 1 -2v-1q2 -2 8 -2h1q38 0 67 -32q27 -33 37 -81q7 -38 7 -78q0 -26 -4 -68q-9 -100 -42 -223l-7 -23l-2 -6q-6 -16 -23 -16h-2q-15 0 -21 12z" />
    <glyph glyph-name="braceright" unicode="}" horiz-adv-x="268" 
d="M40 -374q-7 7 -10 20q-1 2 -1 6q0 6 2 8q4 7 17 9q14 2 16.5 4t5.5 14q19 84 30 175l6 67l1 13q1 14 1 40q0 50 -9 120q0 1 -2 7l-1 2h-1q-3 0 -6 -3l-3 -1q-11 -7 -24 -7q-3 0 -11 2q-15 5 -21 22q-6 13 -8.5 28.5t-3.5 19.5q-5 41 -5 96q0 43 3 82q2 49 14 142l10 92
q2 22 2 59q-2 19 -6 28q-7 -5 -11 -15l-1 -5q-8 -16 -23 -16t-22.5 8.5t-3.5 20.5q7 31 37 47q11 6 22 6q22 0 35 -18q12 -16 14 -46q2 -44 -7 -113v-1l-5 -37q-9 -69 -13 -110t-4 -84q-1 -13 -1 -39q0 -56 6 -93q2 -13 6 -27q6 0 10 6l4 3q11 10 24 10q9 0 16.5 -5.5
t12.5 -15.5q6 -14 8 -35l1 -5q7 -65 7 -113q0 -55 -8 -124q-13 -110 -33 -203q-4 -23 -12 -37q-9 -18 -26 -20h-2q-16 0 -27 16z" />
    <glyph glyph-name="bracketleft" unicode="[" horiz-adv-x="219" 
d="M88 -330q-62 2 -81 53q-11 29 -18 80q-6 55 -8 166v93v69l-3 95q-1 10 -1 19.5t-1 16.5v24l-2 77q-3 84 -3 166q0 38 4 57q6 38 30 55q17 11 42 11q17 0 32 -4q34 -8 55 -23q13 -9 21 -18q6 -9 6 -15q0 -8 -7 -13t-16 -5q-10 0 -18 6q-3 2 -9 10q-18 26 -59 30
q-21 1 -31 -16q-8 -14 -10 -36v-4l-1 -49q0 -48 2 -144l2 -65q2 -100 2 -150q2 -74 2 -111l3 -156q1 -71 14 -131q3 -15 13 -36q11 -18 30 -18h7q33 -1 58 1.5t47 12.5q8 4 15 4q9 0 15 -4.5t8 -11.5q1 -1 1 -4q0 -11 -13 -15q-20 -11 -39 -12q-30 -5 -74 -5h-15z" />
    <glyph glyph-name="bracketright" unicode="]" horiz-adv-x="250" 
d="M9 -329q-20 0 -52 8q-8 2 -12 4q-11 6 -11 16q0 16 20 19h3q8 0 20 -8q20 -10 35 -10q6 0 14 2q22 6 35 28q12 25 14 55q4 43 4 92q0 52 -2 156q0 45 -1 67l-1 78q0 202 13 368v14q0 10 -1 15q-1 11 -4 13.5t-16 4.5l-22 3q-20 2 -30 4q-5 1 -38 9l-2 1q-5 1 -15 7
q-9 6 -9 15q0 15 17 18h2q6 1 16 1q19 0 27 -12q4 -4 16 -6l14 -2l27 -3q32 -4 46 -17.5t14 -42.5q0 -32 -5 -70v-2q-11 -134 -11 -362q0 -101 1 -151l1 -120q0 -59 -9 -108q-4 -24 -16 -41q-25 -43 -79 -43h-3z" />
    <glyph glyph-name="parenleft" unicode="(" horiz-adv-x="194" 
d="M67 -311q-18 3 -28 19q-7 10 -16 38q-12 47 -18 114q-7 66 -7 166q0 136 19 323q14 136 30 223q7 33 15 48q8 12 20 14l4 1q12 0 21 -9q9 -7 7 -15q0 -7 -5 -11q-9 -7 -12 -15t-6 -24l-2 -6q-25 -119 -39 -260q-13 -130 -13 -240v-44q4 -136 18 -214q1 -5 6 -27l3 -15
q1 -6 3.5 -8t8.5 -2q18 0 26 -9q6 -6 6 -15q0 -16 -14 -26q-10 -6 -21 -6h-6z" />
    <glyph glyph-name="parenright" unicode=")" horiz-adv-x="263" 
d="M-27 -340q-12 2 -20 9t-7 17q0 11 7 18q7 6 18 6t17 4.5t11 13.5q36 61 66 154q39 120 39 278q0 181 -43 350q-22 77 -51 121q-5 6 -5 15q0 8 9 14q6 3 13 3q13 0 22 -10l8 -13q39 -84 58 -185q26 -145 28 -280v0q0 -109 -13.5 -195.5t-42.5 -162.5q-24 -64 -50 -109
q-16 -24 -30 -36q-13 -12 -29 -12h-5z" />
    <glyph glyph-name="hyphen" unicode="-" horiz-adv-x="306" 
d="M64 138q-7 0 -16 3q-11 8 -10 19q0 11 11 16q4 3 11 3q5 0 8 -3q7 -4 22 -4q59 0 127 13q12 2 20 7q5 3 9 3q3 0 9 -2q9 -3 11 -16v-2q0 -9 -8 -14q-7 -5 -16.5 -7t-11.5 -2q-60 -7 -124 -12q-13 0 -37 -2h-5z" />
    <glyph glyph-name="dollar" unicode="$" horiz-adv-x="590" 
d="M285 -398q-12 7 -17 22q-6 22 -8 38q-2 10 -4 26l-17 -7q-26 -10 -59 -13h-8q-9 0 -14 1l-10 1q-27 5 -44.5 22.5t-21.5 43.5q-1 5 -1 17q0 31 15 67q14 30 23 44q46 73 127 113q3 115 16 252l-51 46l-10 9q11 -9 -75 67q-32 30 -53 58q-23 30 -32 51q-12 29 -12 51
q0 39 32 68q24 21 62 34q66 21 144 21q28 0 43 -1q2 15 8 43l7 17q8 11 20 11q7 0 14 -4q10 -5 12 -13q1 -2 1 -5q0 -4 -3 -10q-12 -17 -15 -44q47 -6 96 -23q27 -9 41 -22q17 -14 17 -32q0 -8 -4 -15q-3 -7 -9 -11.5t-14 -4.5q-4 0 -10 2q-20 7 -20 27v5q0 4 -1.5 5.5
t-5.5 3.5q-33 15 -92 23l-5 1q-4 -29 -9.5 -67.5t-11.5 -86.5l-9 -62q0 -5 -1 -7v-6l-7 -54v-4l-6 -55q12 -10 17 -16q103 -100 137 -188q17 -43 17 -88q0 -67 -41 -126q-50 -74 -134 -119q2 -20 4 -29l1 -9q2 -17 4 -25t9 -16q4 -5 4 -11q0 -8 -8 -15q-7 -5 -14 -5
q-4 0 -14 4zM272 325q2 13 4 31t3 26v2l12 100q6 40 13 107l-29 1q-59 0 -118 -16q-30 -9 -47 -20q-32 -23 -32 -53q0 -20 14 -46q16 -28 45 -59q17 -18 67 -64q1 -1 23 -20l40 -35zM417 -121q10 20 15 47q2 20 2 29q0 60 -32.5 113.5t-88.5 111.5q-6 8 -14 14
q-10 -119 -11 -201h3q7 0 14 -4q16 -6 16 -22q0 -9 -6 -13t-17 -7l-5 -1q-1 -1 -2.5 -1t-2.5 -1v-25q2 -115 7 -171q80 50 122 131zM180 -297q4 0 10.5 1t10.5 2q33 11 51 20q-5 62 -6 128l-1 73q-42 -23 -66 -52q-31 -37 -47 -83q-8 -19 -8 -44t15 -37q14 -11 37 -9z" />
    <glyph glyph-name="plus" unicode="+" horiz-adv-x="341" 
d="M165 30q-13 0 -19 11q-6 10 -7 17q-8 29 -7 74q0 12 -13 12q-32 -2 -54 3q-14 2 -19 7q-6 6 -6 13q0 15 16 15q4 0 14 -2q8 -2 13 -2q9 0 28.5 -0.5t21 11.5t2.5 33q1 6 2.5 23.5t5.5 30.5q3 8 9 12.5t13 4.5q9 0 16 -6q9 -6 9 -15q0 -3 -4 -9q-7 -11 -9 -22.5t-2 -24.5
t-1 -22v-1q0 -5 3 -6t10 -1q8 2 22.5 5t25 7t19.5 13q6 6 14 6q11 0 17 -5.5t6 -13.5q0 -9 -5 -14q-11 -12 -30 -19q-22 -8 -53 -13l-16 -2q-11 -2 -13 -4t-2 -12q0 -9 -0.5 -24.5t1.5 -26.5t7 -26q2 -5 2 -12q0 -10 -9 -13q-2 -2 -8 -2z" />
    <glyph glyph-name="equal" unicode="=" horiz-adv-x="321" 
d="M51 207q-5 5 -5 12q0 14 13 16l39 1q59 0 111 7q10 1 17 4t13 11q4 7 11 7t14 -9q4 -5 4 -13t-6 -17q-11 -16 -29 -17q-73 -9 -121 -8l-11 1q-13 0 -21 -7q-2 -2 -7 -2q-14 5 -22 14zM42 90q-14 3 -16 18v2q0 11 11 18q13 9 21 9q6 0 14 -6q2 -2 6 -2t6.5 1t4.5 2
q30 8 52.5 15t39.5 12l55 13q8 2 12 2q2 0 10 -2q5 -1 9 -7t4 -12q0 -7 -4 -11.5t-10 -5.5q-23 -1 -45 -6.5t-55 -15.5q-32 -11 -63 -18q-8 -1 -21 -3.5t-24 -3.5q-4 0 -7 1z" />
    <glyph glyph-name="greater" unicode="&#x3e;" horiz-adv-x="309" 
d="M3 -19q-8 3 -12 10q-2 6 -2 8q0 11 16 17q89 41 133 65q35 19 55 34l11 11q14 16 14 26t-11 24q-23 29 -67 50q-6 2 -9 1q-23 -5 -41 18q-5 5 -5 14q0 8 5 13.5t13 6.5l8 1q7 0 14 -3q64 -24 105 -65q13 -15 20.5 -28.5t8.5 -30.5v0q-2 -25 -19 -42q-18 -19 -47 -36
q-45 -28 -115 -63l-42 -22l-6 -3q-1 -1 -7 -4t-12 -3t-8 1z" />
    <glyph glyph-name="less" unicode="&#x3c;" horiz-adv-x="373" 
d="M251 11q-6 8 -18 9l-66 5q-13 0 -43 2q-22 1 -40 7q-25 8 -31 25q-3 6 -3 14q0 12 8 26q6 13 24 33q25 26 98 90q10 7 29 24l52 43q11 8 21 8q7 0 17 -5q11 -6 11 -19t-12 -18q-14 -5 -36 -23l-5 -4l-5 -3q-85 -66 -120 -99q-23 -21 -36 -42q-4 -7 -4 -11q0 -5 13 -8
q26 -5 63 -5h7q53 -2 79 -6q18 -1 31 -14q12 -12 6 -24q-4 -12 -22 -12v0h-2q-10 0 -16 7z" />
    <glyph glyph-name="percent" unicode="%" horiz-adv-x="550" 
d="M70 -348q3 25 11 77q50 316 154 570q44 112 101 224q21 39 37 59q13 17 25 21q6 3 12 3q12 0 19 -9q6 -6 6 -14t-9 -13q-15 -8 -24 -20t-20 -32q-48 -84 -105 -219q-84 -198 -136 -469q-11 -61 -27 -183q-3 -26 -20 -26q-26 0 -24 31zM81 256q-12 0 -23 7.5t-18 20.5
q-10 21 -10 58q0 31 18 83q7 23 37 49q8 8 18 8q7 0 17 -5q48 -27 48 -87q0 -62 -45 -112l-10 -10q-16 -12 -32 -12zM131 394q-2 25 -8 37q-5 8 -8 8q-4 0 -8 -6q-11 -15 -16.5 -25.5t-5.5 -22.5q0 -9 5 -22q5 -8 5 -13q0 -7 -16 -16q-8 -3 -8 -10q0 -9 3 -17q2 -9 7 -9
q4 0 8 5q39 39 42 91zM282 -259q-14 0 -25 9.5t-18 26.5t-7 45q0 48 21 90q5 9 12 18q9 9 19 9q7 0 16 -6q14 -10 22 -13q22 -7 30 -32q5 -13 5 -31q0 -54 -37 -96q-18 -20 -38 -20zM283 -214q3 0 8 5q28 33 28 74q0 8 -3 17q-4 10 -14 3q-7 -4 -7 -12q0 -2 2 -12
q3 -9 3 -14q0 -11 -12 -12q-10 -2 -12 -7.5t-2 -18.5l2 -14q0 -7 4 -8q1 -1 3 -1z" />
    <glyph glyph-name="at" unicode="@" horiz-adv-x="620" 
d="M167 -263q-61 42 -101 113q-52 95 -52 204l1 27q14 238 179 423q32 37 71 63q48 31 93 40q20 2 29 2q58 0 104 -42q49 -46 68 -126q9 -40 9 -82q0 -28 -5 -68q-17 -111 -66 -206q-19 -37 -41 -60q-2 -3 -8 -7q-19 -17 -38 -17q-7 0 -17 4q-24 10 -41 51l-7 18q-2 9 -7 12
q-3 -2 -4.5 -6.5t-2.5 -6.5l-2 -6q-19 -41 -34 -62q-19 -27 -40 -27q-4 0 -12 2q-17 5 -24 17.5t-11 31.5q-4 16 -4 38q0 85 37 159q14 29 33 45q21 15 41 15q16 0 32 -9q38 -20 46 -69l1 -5q0 -7 -4 -11.5t-11 -6.5q-8 -3 -8 -13q5 -81 31 -126q4 -4 5 -4q4 0 10 6
q23 20 41 55q50 96 65 203q4 38 4 56q0 42 -9 79q-12 49 -41 86q-34 45 -85 45q-19 0 -39 -6q-38 -12 -77 -42q-37 -30 -71 -71q-126 -158 -144 -343q-3 -28 -3 -54q0 -106 46 -188q31 -57 74 -89q54 -42 114 -42q38 0 83 20q34 14 71 48q12 12 22 12q6 0 14 -5q9 -6 11 -16
v-3q0 -8 -6 -15l-3 -4q-63 -60 -144 -76q-21 -3 -40 -3q-72 0 -133 42zM256 33l2 2q47 74 68 192l1 2v2q0 7 -4 10q-2 1 -5 1q-1 0 -7 -2q-15 -10 -26 -33q-35 -67 -35 -144v-3v-4q0 -15 5 -24q0 1 1 1z" />
    <glyph glyph-name="ampersand" unicode="&#x26;" horiz-adv-x="480" 
d="M368 -428q-8 0 -16 6q-6 5 -14 17q-13 19 -25 44t-16 33q-31 66 -65 156q-1 3 -3.5 9t-6.5 10q-7 -2 -9.5 -8.5t-3.5 -8.5q-39 -65 -74 -108q-33 -41 -62 -59q-34 -24 -70 -24q-45 0 -63 38q-11 23 -11 55q0 46 19 124q23 89 76 242l11 30q10 30 47 137q3 11 3 21
q0 9 -1 14q-13 75 -13 137q0 64 12 116q10 46 28 78q12 20 22 28q15 12 31 12q23 0 35 -21q8 -13 10 -36q1 -7 1 -20q0 -36 -13 -94q-17 -77 -60 -205q-5 -18 -5 -31q0 -11 3 -22q14 -63 34.5 -126t51.5 -147l4 -8q7 2 9 7.5t3 7.5q60 134 88 269q19 83 26 159q0 7 4 21
q5 15 21 15q11 0 18 -6.5t5 -16.5q-6 -41 -17 -107q-39 -210 -129 -395q-4 -10 -4 -16q0 -4 2 -12q3 -6 6 -13.5l7 -17.5q54 -137 90 -210q15 -29 29 -46q6 -8 6 -13t-6 -11q-5 -4 -15 -4zM143 461q20 73 22 125q1 5 1 15q0 13 -4 25q-21 -22 -36.5 -82t-15.5 -110
q0 -38 10 -52q19 64 23 79zM56 -303q29 24 59 63q34 45 77 124q7 11 7 23q0 9 -3 18q-57 150 -85 254q0 1 -1 4t-6 5q-4 -4 -5.5 -9t-2.5 -7l-47 -136q-25 -75 -40.5 -125.5t-26.5 -101.5q-11 -54 -9 -87q0 -3 1 -14t5 -19q9 -18 24 -18q7 0 16 3q19 7 37 23z" />
    <glyph glyph-name="bar" unicode="|" horiz-adv-x="180" 
d="M35 -373q-12 5 -17 22q-6 22 -8 38q-7 42 -9.5 84t-4.5 107l-1 62q0 125 17 317l10 93q2 13 4 31t3 26v2l12 100l15 120q5 47 13 71q2 10 6 17q8 12 20 12q7 0 14 -4q10 -5 13 -13v-5q0 -5 -3 -10q-8 -13 -11.5 -26.5t-6.5 -34.5l-1 -11q-12 -76 -24 -167l-9 -62
q0 -5 -1 -7v-6l-7 -54v-4q-21 -192 -21 -346v-36q2 -144 15 -239l1 -9q2 -17 4 -25t9 -16q5 -7 5 -11q0 -9 -9 -15q-7 -5 -14 -5t-14 4z" />
    <glyph glyph-name="asciicircum" unicode="^" horiz-adv-x="248" 
d="M187 411q-10 0 -18 6q-17 12 -27 36q-6 17 -27 109q0 2 -7 32q0 2 -2 9t-7 13q-6 -1 -8 -5l-3 -6q-20 -43 -62 -129q-4 -8 -4 -24q-1 -9 -9.5 -15t-19.5 -6q-5 0 -13 2q-11 5 -11 19q0 12 7 26l84 163q7 13 11 16q9 13 26 13q14 0 25 -11q10 -10 15 -27q15 -49 35 -132
l8 -31q5 -20 20 -32q8 -8 8 -13t-7 -9q-5 -4 -14 -4z" />
    </font>
</defs>
</svg>
